<svg version="1.1" id="Layer_1" xmlns="http://www.w3.org/2000/svg" xmlns:xlink="http://www.w3.org/1999/xlink"
	 width="100%" viewBox="900 500 750 800">	
<path fill="#FED142" opacity="1.000000" stroke="none" 
	d="
M1420.000000,756.000000 
	C1427.999512,756.000000 1435.499390,756.054138 1442.998291,755.988892 
	C1459.387939,755.846313 1472.584961,763.322144 1484.798340,773.281372 
	C1496.118652,782.512329 1504.211914,794.261902 1510.531982,807.177307 
	C1517.800537,822.030884 1522.785278,837.753845 1524.897217,854.182556 
	C1526.153076,863.951416 1526.533081,873.849976 1526.950317,883.705261 
	C1527.483032,896.283569 1527.910767,908.877136 1527.911743,921.464111 
	C1527.912842,933.885010 1528.237061,946.415283 1526.763306,958.698853 
	C1524.956055,973.762695 1521.110840,988.496704 1515.121948,1002.617737 
	C1508.335327,1018.619812 1499.308472,1033.043701 1486.032349,1044.341553 
	C1472.374634,1055.964355 1456.954468,1063.915649 1438.417480,1063.998901 
	C1363.660767,1064.335083 1288.904053,1064.666992 1214.147339,1065.000122 
	C1213.326538,1065.003784 1212.505737,1065.000610 1211.342529,1065.000610 
	C1211.342529,1071.899780 1211.342529,1078.632812 1211.342529,1085.826904 
	C1262.295166,1085.826904 1313.358521,1085.826904 1365.000122,1085.826904 
	C1365.000122,1088.041992 1365.000244,1089.810303 1365.000122,1091.578735 
	C1365.000122,1114.743774 1364.816528,1137.910767 1365.062378,1161.073242 
	C1365.234619,1177.305908 1356.998413,1189.139648 1345.377930,1198.800415 
	C1327.267334,1213.857178 1305.217407,1219.739380 1282.619629,1224.029297 
	C1264.486206,1227.471680 1246.229736,1229.254639 1227.761597,1229.057617 
	C1223.006104,1229.006958 1218.210205,1230.197876 1213.489136,1229.906250 
	C1195.785889,1228.813354 1178.091064,1227.515869 1160.421387,1225.970215 
	C1137.593750,1223.973755 1115.795044,1217.910034 1095.736206,1206.837402 
	C1077.073486,1196.535156 1062.749268,1182.161011 1057.828613,1160.392456 
	C1057.473511,1158.822021 1057.035522,1157.216797 1057.034180,1155.627441 
	C1056.992554,1103.964478 1056.722900,1052.299316 1057.134277,1000.639648 
	C1057.302368,979.526611 1063.552734,960.180725 1079.410522,945.196106 
	C1091.383789,933.882080 1106.054199,927.486389 1121.994751,924.093994 
	C1127.869263,922.843933 1133.968628,922.130310 1139.971436,922.091003 
	C1170.134644,921.893555 1200.300537,922.129028 1230.464111,921.960999 
	C1256.550293,921.815613 1282.676392,922.110901 1308.703613,920.705566 
	C1324.109985,919.873718 1338.790039,914.587402 1351.448364,905.035339 
	C1369.304688,891.560669 1377.905762,872.563904 1382.864014,851.568115 
	C1383.981689,846.835632 1383.935913,841.764038 1383.953735,836.846863 
	C1384.050659,810.107971 1383.999878,783.368469 1383.999878,756.000000 
	C1396.645020,756.000000 1408.072510,756.000000 1420.000000,756.000000 
M1291.100220,1178.582397 
	C1294.307861,1179.045776 1297.636353,1180.303711 1300.702515,1179.837280 
	C1315.235596,1177.625977 1326.101440,1164.748779 1325.119751,1151.020020 
	C1323.981934,1135.108398 1311.153076,1125.448608 1297.641479,1125.275635 
	C1285.922119,1125.125732 1273.869141,1136.293945 1271.671631,1148.088257 
	C1269.432251,1160.107178 1278.922607,1176.203003 1291.100220,1178.582397 
z"/>
<path fill="#3671A3" opacity="1.000000" stroke="none" 
	d="
M1058.000366,654.832825 
	C1058.481201,647.445801 1062.165161,641.390564 1066.629028,635.945618 
	C1079.821167,619.854248 1097.664673,611.146423 1117.278809,606.112732 
	C1131.769165,602.394043 1146.524048,599.496704 1161.313965,597.231323 
	C1170.397461,595.840027 1179.768921,596.329041 1189.942627,595.985596 
	C1203.267944,595.968262 1215.661743,595.939087 1228.055664,595.909912 
	C1254.824585,596.201660 1281.006714,600.018311 1306.334717,608.953796 
	C1317.673828,612.954224 1328.696899,617.902527 1337.867920,625.630737 
	C1350.024414,635.874756 1360.500244,647.672974 1363.991577,664.873230 
	C1363.988037,698.356323 1363.979858,730.969177 1364.009277,763.581970 
	C1364.028442,784.710876 1364.102661,805.839722 1364.152100,826.968628 
	C1364.654297,842.284424 1360.074341,856.293640 1351.558716,868.659058 
	C1340.833618,884.232666 1325.645874,894.147827 1307.359131,898.905334 
	C1301.076172,900.539917 1294.489136,901.005981 1287.116211,901.969727 
	C1260.444580,901.980835 1234.697754,902.014648 1208.951050,902.107178 
	C1207.337524,902.112976 1205.725464,902.577148 1204.112793,902.828003 
	C1195.068115,902.893188 1186.023560,902.958374 1176.046631,903.011475 
	C1155.956421,903.034546 1136.798584,903.054504 1117.640991,903.135498 
	C1116.182007,903.141663 1114.724976,903.580261 1113.266968,903.817871 
	C1102.061279,905.486450 1090.930420,907.653748 1080.892212,913.124207 
	C1063.783813,922.447571 1051.490967,936.230530 1044.840942,954.630615 
	C1042.139893,962.104431 1040.326050,969.898865 1037.778320,978.273010 
	C1037.349609,988.655212 1037.251221,998.311707 1037.152832,1007.968262 
	C1037.089844,1010.725647 1037.026733,1013.482971 1036.702148,1017.041382 
	C1036.281128,1032.626099 1035.947510,1047.411011 1036.066040,1062.192383 
	C1036.102783,1066.779663 1034.729858,1068.168701 1030.140747,1068.113037 
	C1010.691528,1067.877686 991.238098,1067.995728 971.786194,1067.984619 
	C960.778625,1067.119995 951.190613,1062.274170 942.651550,1055.950439 
	C924.992676,1042.872803 913.195435,1025.353394 905.931580,1004.612366 
	C900.567749,989.296570 896.459473,973.740723 894.959717,957.556335 
	C894.232117,949.704102 893.635559,941.839661 892.992310,933.049866 
	C892.964478,919.391418 892.924011,906.663879 892.883606,893.936340 
	C893.138123,868.926331 897.321533,844.608582 907.047852,821.530090 
	C918.527954,794.290283 936.236145,772.966003 965.622803,763.770447 
	C969.951782,762.415894 974.542297,761.896851 979.912354,761.023926 
	C1053.218384,761.012573 1125.623779,760.973450 1198.029175,760.893372 
	C1199.645508,760.891602 1201.261353,760.423950 1202.877441,760.173645 
	C1203.536987,760.117432 1204.218384,759.924561 1204.852539,760.026550 
	C1210.130127,760.875305 1211.466553,758.324951 1211.076416,753.506897 
	C1210.716187,749.059753 1210.997803,744.560730 1210.711060,739.317566 
	C1209.622437,738.387390 1208.819702,738.082092 1208.016602,738.081604 
	C1182.989868,738.065857 1157.963257,738.079956 1132.936523,738.089478 
	C1122.560303,738.047180 1112.184082,738.004944 1100.990479,737.697632 
	C1088.050415,737.294556 1075.924438,736.938538 1063.807007,737.128479 
	C1059.113525,737.201965 1057.932617,735.626587 1057.962280,731.138794 
	C1058.130249,705.704468 1058.017578,680.268372 1058.000366,654.832825 
M1139.260620,650.090881 
	C1136.151733,648.708679 1133.158325,646.905640 1129.914429,646.014648 
	C1113.001221,641.368835 1095.379883,654.224060 1096.429688,673.171387 
	C1097.646973,695.141907 1121.373535,706.948669 1139.429932,693.702942 
	C1147.341064,687.899475 1151.591309,679.542175 1150.636719,669.794617 
	C1149.893433,662.205994 1145.988647,655.514954 1139.260620,650.090881 
z"/>
<path fill="#66888B" opacity="1.000000" stroke="none" 
	d="
M1202.422607,760.115601 
	C1201.261353,760.423950 1199.645508,760.891602 1198.029175,760.893372 
	C1125.623779,760.973450 1053.218384,761.012573 980.335571,761.017456 
	C981.382812,760.640991 982.907349,760.008972 984.432007,760.008545 
	C1056.943970,759.990479 1129.455933,760.027161 1202.422607,760.115601 
z"/>
<path fill="#87977B" opacity="1.000000" stroke="none" 
	d="
M1364.478760,826.706116 
	C1364.102661,805.839722 1364.028442,784.710876 1364.009277,763.581970 
	C1363.979858,730.969177 1363.988037,698.356323 1363.973633,665.254150 
	C1364.310303,666.135498 1364.952393,667.505920 1364.953857,668.877014 
	C1365.010132,720.740173 1365.008301,772.603455 1365.004150,824.466675 
	C1365.004028,825.125671 1364.874512,825.784607 1364.478760,826.706116 
z"/>
<path fill="#66888B" opacity="1.000000" stroke="none" 
	d="
M1057.645264,655.098328 
	C1058.017578,680.268372 1058.130249,705.704468 1057.962280,731.138794 
	C1057.932617,735.626587 1059.113525,737.201965 1063.807007,737.128479 
	C1075.924438,736.938538 1088.050415,737.294556 1100.517456,737.629028 
	C1086.421753,737.825562 1071.981567,737.825562 1057.222412,737.825562 
	C1057.129272,736.630005 1056.990967,735.679138 1056.990356,734.728088 
	C1056.973267,709.258240 1056.966797,683.788330 1056.978882,658.318481 
	C1056.979370,657.333557 1057.181641,656.348694 1057.645264,655.098328 
z"/>
<path fill="#66888B" opacity="1.000000" stroke="none" 
	d="
M972.043152,1068.352661 
	C991.238098,1067.995728 1010.691528,1067.877686 1030.140747,1068.113037 
	C1034.729858,1068.168701 1036.102783,1066.779663 1036.066040,1062.192383 
	C1035.947510,1047.411011 1036.281128,1032.626099 1036.632568,1017.498047 
	C1036.824585,1034.257690 1036.824585,1051.361816 1036.824585,1068.994873 
	C1031.776489,1068.994873 1026.995239,1069.014893 1022.214111,1068.991333 
	C1005.576111,1068.909302 988.938110,1068.812134 972.043152,1068.352661 
z"/>
<path fill="#66888B" opacity="1.000000" stroke="none" 
	d="
M1204.568604,902.885498 
	C1205.725464,902.577148 1207.337524,902.112976 1208.951050,902.107178 
	C1234.697754,902.014648 1260.444580,901.980835 1286.669312,901.973755 
	C1285.629028,902.356018 1284.111084,902.994263 1282.592529,902.995972 
	C1256.736450,903.025146 1230.880493,902.975342 1204.568604,902.885498 
z"/>
<path fill="#87977B" opacity="1.000000" stroke="none" 
	d="
M1133.180908,738.446777 
	C1157.963257,738.079956 1182.989868,738.065857 1208.016602,738.081604 
	C1208.819702,738.082092 1209.622437,738.387390 1210.711304,738.859741 
	C1188.449463,739.121582 1165.901611,739.082520 1143.353882,739.018066 
	C1140.044189,739.008606 1136.734741,738.878418 1133.180908,738.446777 
z"/>
<path fill="#87977B" opacity="1.000000" stroke="none" 
	d="
M1113.708496,903.867554 
	C1114.724976,903.580261 1116.182007,903.141663 1117.640991,903.135498 
	C1136.798584,903.054504 1155.956421,903.034546 1175.582764,903.052734 
	C1174.685425,903.413574 1173.319702,903.986877 1171.953613,903.988464 
	C1152.685791,904.010254 1133.417847,903.954285 1113.708496,903.867554 
z"/>
<path fill="#87977B" opacity="1.000000" stroke="none" 
	d="
M892.529419,894.182922 
	C892.924011,906.663879 892.964478,919.391418 892.960876,932.588867 
	C892.609375,932.366760 892.033936,931.674622 892.034241,930.982727 
	C892.039490,918.798340 892.114990,906.613892 892.529419,894.182922 
z"/>
<path fill="#87977B" opacity="1.000000" stroke="none" 
	d="
M1227.809937,595.554626 
	C1215.661743,595.939087 1203.267944,595.968262 1190.405151,595.940491 
	C1190.630127,595.583130 1191.324463,595.020203 1192.017944,595.021301 
	C1203.866699,595.039246 1215.715454,595.126953 1227.809937,595.554626 
z"/>
<path fill="#87977B" opacity="1.000000" stroke="none" 
	d="
M1037.478027,1007.704773 
	C1037.251221,998.311707 1037.349609,988.655212 1037.632080,978.671997 
	C1037.811768,988.043945 1037.807495,997.742615 1037.478027,1007.704773 
z"/>
<path fill="#000000" opacity="1.000000" stroke="none" 
	d="
M1290.784302,1178.317871 
	C1278.922607,1176.203003 1269.432251,1160.107178 1271.671631,1148.088257 
	C1273.869141,1136.293945 1285.922119,1125.125732 1297.641479,1125.275635 
	C1311.153076,1125.448608 1323.981934,1135.108398 1325.119751,1151.020020 
	C1326.101440,1164.748779 1315.235596,1177.625977 1300.702515,1179.837280 
	C1297.636353,1180.303711 1294.307861,1179.045776 1290.784302,1178.317871 
z"/>
<path fill="#000000" opacity="1.000000" stroke="none" 
	d="
M1139.575928,650.278870 
	C1145.988647,655.514954 1149.893433,662.205994 1150.636719,669.794617 
	C1151.591309,679.542175 1147.341064,687.899475 1139.429932,693.702942 
	C1121.373535,706.948669 1097.646973,695.141907 1096.429688,673.171387 
	C1095.379883,654.224060 1113.001221,641.368835 1129.914429,646.014648 
	C1133.158325,646.905640 1136.151733,648.708679 1139.575928,650.278870 
z"/>
</svg>