<svg version="1.0" id="PC" xmlns="http://www.w3.org/2000/svg"
 width="140" height="70" viewBox="100 100 350 100"
 preserveAspectRatio="xMidYMid meet">

<path fill="#D9D9D9" opacity="1.000000" stroke="none"
	d="
M288.991669,135.002396 
	C289.243042,135.173965 289.413269,135.405273 289.618164,136.085342 
	C289.787109,136.639664 289.840149,136.804947 289.893158,136.970230 
	C289.762634,138.718872 289.632141,140.467514 289.219666,142.684372 
	C288.873779,143.249695 288.734283,143.401352 288.758453,143.434814 
	C288.890289,143.617447 289.062408,143.771011 289.220673,143.934586 
	C289.334015,158.346954 289.460693,172.759247 289.555267,187.171738 
	C289.605347,194.801163 289.599579,202.430954 289.649841,210.781799 
	C289.750702,211.676819 289.820709,211.850601 289.890717,212.024368 
	C289.758209,212.400848 289.625702,212.777344 289.374573,213.356461 
	C289.255951,213.559097 288.958557,213.522766 288.892181,213.352448 
	C288.556580,213.396713 288.287323,213.611267 287.553345,213.899139 
	C246.365646,213.985245 205.642685,213.998032 164.858704,213.544861 
	C164.788498,187.059250 164.779297,161.039597 164.770111,135.019943 
	C166.680649,134.337982 168.589539,133.066452 170.501968,133.061127 
	C208.697418,132.954773 246.893280,132.994522 285.640656,133.401672 
	C287.125397,134.199844 288.058533,134.601120 288.991669,135.002396 
M206.500000,138.013992 
	C195.834976,138.014435 185.164017,138.222473 174.507767,137.916916 
	C170.010834,137.787979 168.867416,139.309296 168.911026,143.633759 
	C169.114426,163.795258 169.119308,183.961182 168.909897,204.122574 
	C168.863342,208.604843 170.001389,210.164246 174.736633,210.118851 
	C198.694183,209.889114 222.655136,210.013992 246.614883,210.013580 
	C258.279755,210.013367 269.944672,209.998993 281.609467,210.019943 
	C283.927887,210.024109 286.026184,209.964264 285.976318,206.754578 
	C285.875488,200.259521 285.858154,193.763168 285.812622,187.267288 
	C285.713654,173.150467 285.418060,159.030670 285.625336,144.918304 
	C285.703156,139.621185 284.861786,138.022873 279.488892,138.019989 
	C255.492599,138.007126 231.496292,138.014191 206.500000,138.013992 
z"/>
<path fill="#3D3D3D" opacity="1.000000" stroke="none" 
	d="
M288.958557,213.522766 
	C288.958557,213.522766 289.255951,213.559097 289.368286,213.658203 
	C293.566345,213.850235 297.652985,213.914185 301.737518,214.043884 
	C306.246552,214.187088 306.793365,215.285950 304.021423,219.599213 
	C302.047699,219.235733 300.738953,218.952820 299.430054,218.952179 
	C251.266190,218.928436 203.102295,218.922180 154.938477,218.968109 
	C153.356964,218.969620 151.776001,219.538376 150.194778,219.842712 
	C149.529236,218.596649 148.290573,217.297104 148.400116,216.123367 
	C148.472870,215.343918 150.433548,214.253738 151.618958,214.156876 
	C155.093353,213.872940 158.602676,214.016327 162.882034,213.959656 
	C164.083740,213.954941 164.501740,213.982880 164.919739,214.010834 
	C205.642685,213.998032 246.365646,213.985245 287.824341,213.934753 
	C288.692932,213.772293 288.825745,213.647537 288.958557,213.522766 
z"/>
<path fill="#686868" opacity="1.000000" stroke="none" 
	d="
M150.595520,219.912811 
	C151.776001,219.538376 153.356964,218.969620 154.938477,218.968109 
	C203.102295,218.922180 251.266190,218.928436 299.430054,218.952179 
	C300.738953,218.952820 302.047699,219.235733 303.652863,219.676636 
	C300.157288,220.325302 296.365906,220.989929 292.573364,220.996658 
	C249.342529,221.073318 206.111465,221.077438 162.880615,221.006149 
	C158.918610,220.999619 154.957672,220.339523 150.595520,219.912811 
z"/>
<path fill="#BFBFBF" opacity="1.000000" stroke="none" 
	d="
M421.344849,171.490402 
	C423.564606,171.490311 425.362762,171.490311 427.563293,171.490311 
	C427.303436,176.110504 429.732666,180.846039 424.195923,183.611923 
	C419.617554,185.899078 413.080688,184.852417 409.908020,181.252136 
	C406.503845,177.389236 406.229523,170.790573 409.288727,166.358292 
	C412.107483,162.274399 417.604950,160.546875 422.641418,162.286880 
	C424.026825,162.765503 425.288422,163.602356 426.767395,164.356720 
	C425.781311,167.927658 423.822021,166.398163 421.565155,166.267303 
	C418.765533,166.105042 414.639801,166.716675 413.338196,168.572784 
	C411.811096,170.750473 411.660095,175.150085 412.888794,177.590988 
	C413.810577,179.422058 417.810120,180.145996 420.533508,180.416946 
	C421.671478,180.530182 423.053253,178.193130 425.334808,175.997635 
	C421.940094,175.509659 420.362488,175.282883 416.944550,174.791565 
	C418.855103,173.206406 419.889160,172.348450 421.344849,171.490402 
z"/>
<path fill="#C3C3C3" opacity="1.000000" stroke="none" 
	d="
M404.998291,165.427673 
	C404.994263,171.701111 404.990845,177.518433 404.972961,183.335724 
	C404.972534,183.476547 404.811462,183.616882 404.143097,184.707199 
	C398.417328,181.565369 396.418640,174.923004 391.711639,171.066681 
	C388.781921,174.917755 394.089691,181.450882 387.075867,185.127838 
	C387.075867,176.910873 387.075867,169.837463 387.075867,161.844437 
	C394.042847,163.623291 395.199463,171.119232 400.641968,174.500427 
	C400.641968,170.427643 400.641968,166.684494 400.641968,162.645020 
	C403.155243,162.084641 405.220337,161.301254 404.998291,165.427673 
z"/>
<path fill="#C3C3C3" opacity="1.000000" stroke="none" 
	d="
M340.692078,162.201431 
	C349.117920,161.524887 353.804443,164.438065 354.980011,170.748154 
	C356.191284,177.249634 353.005981,182.781265 347.156952,184.333893 
	C341.076630,185.947937 335.269958,183.177917 333.343933,177.744492 
	C331.059753,171.300690 333.657837,165.523560 340.692078,162.201431 
M338.040283,168.766815 
	C335.888245,174.482071 336.860657,178.581207 340.935394,180.241302 
	C344.358490,181.635910 347.481293,181.051727 349.750458,177.961609 
	C351.931244,174.991821 351.522705,169.747391 348.711212,167.496048 
	C345.287689,164.754639 341.735504,164.993210 338.040283,168.766815 
z"/>
<path fill="#C8C8C8" opacity="1.000000" stroke="none" 
	d="
M357.012939,181.556534 
	C357.007721,175.141098 357.007721,169.183731 357.007721,162.986969 
	C360.411011,162.986969 363.507812,163.047379 366.601471,162.973846 
	C372.288666,162.838669 375.757812,165.496521 376.790192,170.887405 
	C377.853333,176.439163 375.221161,182.239639 370.263580,183.375290 
	C366.308807,184.281219 362.051331,183.906006 357.926727,183.945221 
	C357.630035,183.948044 357.321320,182.687668 357.012939,181.556534 
M372.688171,175.037018 
	C372.844238,167.445328 369.892853,165.195435 361.716522,166.675537 
	C361.716522,171.034180 361.716522,175.392822 361.716522,179.822968 
	C366.124603,180.018341 370.548859,181.236893 372.688171,175.037018 
z"/>
<path fill="#BFBFBF" opacity="1.000000" stroke="none" 
	d="
M313.691528,177.880768 
	C312.277100,170.723633 313.816193,166.060364 318.184631,163.417038 
	C322.346375,160.898804 327.479767,161.444336 333.460846,166.009552 
	C330.751160,166.282715 329.135040,166.883194 327.806702,166.496078 
	C324.079407,165.409897 320.275391,165.415527 318.587616,168.999832 
	C317.437347,171.442551 317.438904,175.323120 318.607635,177.751022 
	C320.331055,181.331161 324.133636,181.279663 327.834625,180.081131 
	C329.256012,179.620804 330.951294,180.006104 332.527924,180.587204 
	C326.277954,187.095825 318.304199,185.764709 313.691528,177.880768 
z"/>
<path fill="#050505" opacity="1.000000" stroke="none" 
	d="
M164.858704,213.544861 
	C164.501740,213.982880 164.083740,213.954941 163.349731,213.922546 
	C163.026749,189.267624 163.000809,164.617126 163.058060,139.966812 
	C163.061646,138.421173 163.715820,136.877060 164.418701,135.176086 
	C164.779297,161.039597 164.788498,187.059250 164.858704,213.544861 
z"/>
<path fill="#C3C3C3" opacity="1.000000" stroke="none" 
	d="
M379.074829,163.523346 
	C382.204254,160.969391 383.180328,162.284393 383.159698,165.463989 
	C383.120972,171.436554 383.148560,177.409561 383.148560,183.563080 
	C380.233459,184.843384 378.886536,184.356171 378.975494,180.919189 
	C379.121613,175.274414 379.012939,169.623047 379.074829,163.523346 
z"/>
<path fill="#B5B5B5" opacity="1.000000" stroke="none" 
	d="
M141.043747,178.961624 
	C141.043777,182.231308 141.043777,185.009369 141.043777,187.700974 
	C136.129288,188.970810 137.228271,185.638153 137.207825,183.468521 
	C137.047409,166.448242 137.068329,166.448044 141.043716,166.170288 
	C141.043716,170.287949 141.043716,174.378983 141.043747,178.961624 
z"/>
<path fill="#E8E8E8" opacity="1.000000" stroke="none" 
	d="
M288.958740,134.671753 
	C288.058533,134.601120 287.125397,134.199844 286.103638,133.485840 
	C286.985291,133.562439 287.955536,133.951782 288.958740,134.671753 
z"/>
<path fill="#050505" opacity="1.000000" stroke="none" 
	d="
M290.023315,211.907806 
	C289.820709,211.850601 289.750702,211.676819 289.767395,211.235687 
	C289.954712,211.242661 290.055298,211.516953 290.023315,211.907806 
z"/>
<path fill="#050505" opacity="1.000000" stroke="none" 
	d="
M290.026794,136.862885 
	C289.840149,136.804947 289.787109,136.639664 289.790466,136.220154 
	C289.951385,136.229141 290.055908,136.492325 290.026794,136.862885 
z"/>
<path fill="#E8E8E8" opacity="1.000000" stroke="none" 
	d="
M289.315704,143.685287 
	C289.062408,143.771011 288.890289,143.617447 288.758453,143.434814 
	C288.734283,143.401352 288.873779,143.249695 289.079407,143.044922 
	C289.284302,143.103485 289.347534,143.269730 289.315704,143.685287 
z"/>
<path fill="#C8C8C8" opacity="1.000000" stroke="none" 
	d="
M207.000000,138.014023 
	C231.496292,138.014191 255.492599,138.007126 279.488892,138.019989 
	C284.861786,138.022873 285.703156,139.621185 285.625336,144.918304 
	C285.418060,159.030670 285.713654,173.150467 285.812622,187.267288 
	C285.858154,193.763168 285.875488,200.259521 285.976318,206.754578 
	C286.026184,209.964264 283.927887,210.024109 281.609467,210.019943 
	C269.944672,209.998993 258.279755,210.013367 246.614883,210.013580 
	C222.655136,210.013992 198.694183,209.889114 174.736633,210.118851 
	C170.001389,210.164246 168.863342,208.604843 168.909897,204.122574 
	C169.119308,183.961182 169.114426,163.795258 168.911026,143.633759 
	C168.867416,139.309296 170.010834,137.787979 174.507767,137.916916 
	C185.164017,138.222473 195.834976,138.014435 207.000000,138.014023"/>




<text x="180" y="175"
        font-family="Verdana"
        font-size="15"
		>
   Michael Beta
  </text>

</svg>