<svg version="1.1" id="Layer_1" xmlns="http://www.w3.org/2000/svg"
	 width="140" height="70" viewBox="850 450 1840 1200" preserveAspectRatio="xMidYMid meet">

<path fill="#D7D8D8" opacity="1.000000" stroke="none" 
	d="
M1121.046021,1455.650635 
	C1120.801147,1452.007568 1120.342651,1448.364624 1120.342041,1444.721558 
	C1120.313599,1273.725586 1120.317993,1102.729614 1120.371826,931.733704 
	C1120.373169,927.430054 1120.498047,923.026733 1121.383667,918.843079 
	C1123.418457,909.229919 1130.429932,903.202332 1140.135498,902.223267 
	C1142.776978,901.956787 1145.464233,902.125549 1148.130493,902.125427 
	C1411.124268,902.116699 1674.118042,902.110840 1937.111816,902.105530 
	C1941.111694,902.105469 1945.115601,902.001221 1949.110840,902.138611 
	C1963.048340,902.617920 1971.067261,910.736511 1971.589722,924.853638 
	C1971.700562,927.849731 1971.622925,930.852905 1971.622925,933.852844 
	C1971.621460,1104.515503 1971.620239,1275.178101 1971.605835,1445.840820 
	C1971.605591,1448.502197 1971.440552,1451.163696 1970.269531,1454.573975 
	C1859.747314,1455.295776 1750.308350,1455.263306 1640.869263,1455.271362 
	C1637.899536,1455.271606 1634.929688,1455.709106 1631.041748,1455.748657 
	C1575.079712,1455.517212 1520.035767,1455.475830 1464.991943,1455.462891 
	C1463.346191,1455.462402 1461.700562,1455.756714 1459.139160,1455.677979 
	C1456.562256,1455.388062 1454.901123,1455.286377 1453.239990,1455.286255 
	C1344.826416,1455.280273 1236.412842,1455.280640 1127.999268,1455.299927 
	C1125.681519,1455.300415 1123.363770,1455.528687 1121.046021,1455.650635 
M1857.000000,1429.990234 
	C1881.662720,1429.990234 1906.325317,1430.003174 1930.988037,1429.984863 
	C1943.955322,1429.975220 1943.983032,1429.950439 1943.983643,1416.580933 
	C1943.990967,1262.269165 1943.991333,1107.957275 1943.986816,953.645508 
	C1943.986328,939.980347 1943.964355,939.962280 1930.252441,939.961365 
	C1831.599487,939.954895 1732.946533,940.015808 1634.293823,939.876038 
	C1622.686768,939.859619 1611.083374,938.706970 1599.473633,938.186279 
	C1596.491577,938.052551 1593.483765,938.213074 1590.501099,938.424133 
	C1584.216553,938.868835 1577.934692,939.948242 1571.662109,939.875427 
	C1500.129517,939.045227 1428.571045,941.902405 1357.050415,938.200989 
	C1346.173340,937.638062 1335.169556,939.996033 1324.243042,939.824402 
	C1294.971313,939.364746 1265.727051,940.461060 1236.400269,938.496582 
	C1212.611938,936.903198 1188.557983,939.450256 1164.616821,939.905762 
	C1149.986084,940.184143 1149.972534,939.967590 1149.972168,954.756226 
	C1149.968750,1107.734863 1149.964355,1260.713623 1149.973267,1413.692261 
	C1149.974243,1431.277344 1148.666504,1429.984985 1166.096069,1429.985474 
	C1395.730713,1429.992676 1625.365356,1429.990234 1857.000000,1429.990234 
M1546.850708,916.166870 
	C1545.162109,916.978149 1542.965820,917.373047 1541.889526,918.686218 
	C1539.559448,921.528625 1540.599976,924.318237 1543.488037,926.254883 
	C1546.870239,928.522949 1549.199341,926.501770 1550.801025,923.770203 
	C1552.661865,920.596436 1551.470581,918.096252 1546.850708,916.166870 
z"/>
<path fill="#333333" opacity="1.000000" stroke="none" 
	d="
M1120.041626,1455.711792 
	C1123.363770,1455.528687 1125.681519,1455.300415 1127.999268,1455.299927 
	C1236.412842,1455.280640 1344.826416,1455.280273 1453.239990,1455.286255 
	C1454.901123,1455.286377 1456.562256,1455.388062 1459.163330,1456.432373 
	C1463.761475,1466.885742 1465.461914,1468.118896 1476.430786,1468.133789 
	C1517.012085,1468.188721 1557.593262,1468.161743 1598.174561,1468.163086 
	C1604.827148,1468.163330 1611.484375,1468.303467 1618.131348,1468.108398 
	C1627.246948,1467.841187 1629.872314,1465.410645 1631.959961,1455.942871 
	C1634.929688,1455.709106 1637.899536,1455.271606 1640.869263,1455.271362 
	C1750.308350,1455.263306 1859.747314,1455.295776 1970.039795,1455.460205 
	C2003.395264,1455.699585 2035.897461,1455.806030 2068.399658,1455.901611 
	C2081.914795,1455.941284 2081.939941,1455.930664 2081.926758,1469.645142 
	C2081.921875,1474.617798 2081.765137,1479.590332 2080.672852,1485.379517 
	C2075.674072,1486.109009 2071.680908,1485.945923 2067.687500,1485.945801 
	C1866.858765,1485.941406 1666.029907,1485.949951 1465.201172,1485.959717 
	C1313.331055,1485.967163 1161.460815,1485.978394 1009.590637,1485.987915 
	C1006.690186,1476.535767 1008.327515,1467.082031 1008.747986,1456.248535 
	C1046.039185,1455.414917 1082.549683,1456.273315 1120.041626,1455.711792 
z"/>
<path fill="#636363" opacity="1.000000" stroke="none" 
	d="
M1009.769714,1486.682861 
	C1161.460815,1485.978394 1313.331055,1485.967163 1465.201172,1485.959717 
	C1666.029907,1485.949951 1866.858765,1485.941406 2067.687500,1485.945801 
	C2071.680908,1485.945923 2075.674072,1486.109009 2080.547852,1486.335693 
	C2079.201660,1492.697510 2073.586426,1494.674927 2068.146240,1495.811279 
	C2056.772949,1498.186768 2045.291260,1500.384277 2033.742554,1501.488770 
	C2019.847900,1502.817261 2005.837769,1503.487915 1991.877197,1503.493164 
	C1697.812744,1503.601929 1403.748169,1503.651611 1109.683838,1503.453979 
	C1082.090332,1503.435425 1054.411987,1502.478027 1027.350342,1495.987427 
	C1020.995422,1494.463257 1014.102295,1493.558472 1009.769714,1486.682861 
z"/>
<path fill="#C5C5C5" opacity="1.000000" stroke="none" 
	d="
M2662.740723,1231.875610 
	C2662.740723,1238.816162 2662.740723,1244.779297 2662.740723,1251.430420 
	C2653.325928,1251.430420 2644.545654,1251.430420 2635.066895,1251.430420 
	C2635.066895,1202.092407 2635.066895,1152.660522 2635.066895,1101.933472 
	C2641.642578,1101.933472 2648.271240,1101.267578 2654.655518,1102.227905 
	C2657.633545,1102.675781 2660.664795,1105.854004 2662.774414,1108.508179 
	C2682.660889,1133.528076 2702.350830,1158.704468 2722.106934,1183.828125 
	C2724.146484,1186.422119 2726.248047,1188.967041 2728.245361,1191.440796 
	C2728.899902,1191.201050 2729.243652,1191.134399 2729.515625,1190.957397 
	C2729.750000,1190.805054 2730.068115,1190.526855 2730.068115,1190.304077 
	C2730.092773,1161.373047 2730.091309,1132.441895 2730.091309,1103.060059 
	C2739.596436,1100.880127 2748.438232,1102.169922 2758.725098,1102.052490 
	C2758.802002,1151.815430 2758.729004,1201.229614 2758.743896,1251.391846 
	C2752.748047,1251.391846 2747.283691,1251.391846 2740.602295,1251.391846 
	C2715.859619,1219.554199 2690.454102,1186.863647 2663.480957,1152.156006 
	C2662.213867,1163.054443 2662.879395,1171.528809 2662.755371,1179.942871 
	C2662.632812,1188.267090 2662.727783,1196.594727 2662.729736,1204.920776 
	C2662.731689,1213.579956 2662.737061,1222.239014 2662.740723,1231.875610 
z"/>
<path fill="#C4C4C4" opacity="1.000000" stroke="none" 
	d="
M2885.974609,1165.293701 
	C2895.569092,1165.294312 2904.171631,1165.294312 2913.656494,1165.294312 
	C2913.656494,1169.592041 2913.656982,1172.837402 2913.656494,1176.082886 
	C2913.654053,1190.402588 2913.160400,1204.745850 2913.848389,1219.032227 
	C2914.212402,1226.590576 2911.394775,1231.498169 2906.046875,1236.171631 
	C2894.693115,1246.093384 2881.798584,1252.216553 2866.846680,1254.451904 
	C2852.744141,1256.560425 2838.867920,1255.568237 2825.320312,1251.704346 
	C2801.077148,1244.790039 2785.040039,1229.127441 2777.916992,1204.802612 
	C2771.595947,1183.215576 2772.894287,1161.913330 2782.058594,1141.418091 
	C2792.275146,1118.569092 2810.022217,1104.658203 2834.587402,1099.705688 
	C2858.236328,1094.937744 2880.260742,1098.736572 2900.113281,1112.890625 
	C2903.295410,1115.159424 2906.121338,1117.928223 2909.864502,1121.104614 
	C2903.446045,1127.113159 2897.670898,1132.519653 2891.491455,1138.304443 
	C2888.963135,1136.579102 2886.333496,1134.664062 2883.588867,1132.930786 
	C2861.865723,1119.211914 2833.955811,1121.613037 2817.316895,1138.595581 
	C2800.262207,1156.002930 2796.970947,1187.756470 2810.396973,1208.031494 
	C2812.927734,1211.853149 2816.181641,1215.422363 2819.760010,1218.284912 
	C2835.683350,1231.022339 2863.771973,1232.186768 2881.018555,1221.387329 
	C2885.376953,1218.658325 2887.756592,1215.526733 2887.348633,1210.091553 
	C2886.906006,1204.192505 2887.248047,1198.234619 2887.248047,1191.139404 
	C2874.249512,1191.139404 2862.108887,1191.139404 2849.326660,1191.139404 
	C2849.326660,1182.177734 2849.326660,1174.379517 2849.326660,1165.292969 
	C2861.196045,1165.292969 2873.089600,1165.292969 2885.974609,1165.293701 
z"/>
<path fill="#C4C4C4" opacity="1.000000" stroke="none" 
	d="
M2294.829834,1241.236572 
	C2259.057861,1215.078125 2256.554199,1155.519531 2284.757812,1123.491577 
	C2292.839355,1114.314331 2302.604004,1107.636841 2314.231445,1103.716675 
	C2332.144043,1097.677856 2350.301514,1097.439819 2368.227539,1102.842651 
	C2390.337158,1109.506104 2405.506836,1124.303467 2413.695801,1145.790405 
	C2422.530273,1168.971191 2421.783203,1192.278809 2411.266113,1214.665405 
	C2397.496826,1243.975464 2372.460205,1255.378540 2341.492920,1255.430542 
	C2324.939941,1255.458374 2309.173096,1251.590942 2294.829834,1241.236572 
M2325.161865,1226.481934 
	C2336.256348,1230.046509 2347.475342,1230.108154 2358.580078,1226.919556 
	C2378.698486,1221.143066 2390.979004,1202.950439 2391.593994,1178.596680 
	C2392.185303,1155.174683 2380.247070,1134.700928 2361.096436,1128.317993 
	C2335.488037,1119.782715 2302.996094,1127.052734 2294.978760,1163.779907 
	C2289.245117,1190.044189 2299.781006,1217.849854 2325.161865,1226.481934 
z"/>
<path fill="#C5C5C5" opacity="1.000000" stroke="none" 
	d="
M2438.444336,1101.893555 
	C2457.385498,1101.876343 2475.364746,1101.945435 2493.343506,1101.869385 
	C2542.184326,1101.662598 2569.401367,1136.775635 2567.686279,1181.702759 
	C2567.225342,1193.776489 2564.308105,1205.384766 2558.422119,1216.100952 
	C2546.752441,1237.347656 2528.361328,1249.395996 2504.700195,1250.984009 
	C2481.581543,1252.535767 2458.277344,1251.321533 2434.347412,1251.321533 
	C2434.190430,1248.958618 2433.915283,1246.733765 2433.913818,1244.508789 
	C2433.882324,1199.894165 2433.831543,1155.279541 2433.986816,1110.665405 
	C2433.997559,1107.604492 2431.485107,1102.854736 2438.444336,1101.893555 
M2536.084229,1196.557373 
	C2537.170654,1191.699341 2538.839355,1186.889038 2539.241699,1181.974976 
	C2540.919678,1161.486206 2532.640869,1137.859131 2508.274170,1130.980835 
	C2493.341309,1126.765747 2478.050537,1129.119385 2463.044434,1128.791016 
	C2461.118896,1144.275879 2461.749756,1217.379028 2463.785645,1224.462036 
	C2474.004639,1224.462036 2484.308594,1224.565674 2494.610107,1224.439575 
	C2513.748047,1224.205444 2527.714600,1215.808960 2536.084229,1196.557373 
z"/>
<path fill="#C4C4C4" opacity="1.000000" stroke="none" 
	d="
M2133.730713,1155.737305 
	C2150.797363,1089.898315 2232.520020,1085.500977 2265.061768,1122.467407 
	C2262.188477,1125.346191 2259.274902,1128.371826 2256.242920,1131.273071 
	C2253.148682,1134.233887 2249.937988,1137.072876 2246.860840,1139.889404 
	C2217.845215,1121.081665 2188.195801,1122.519653 2170.746582,1143.345825 
	C2154.363281,1162.900024 2155.213135,1195.922485 2172.346680,1214.171021 
	C2187.409180,1230.213623 2222.417969,1235.807129 2247.905273,1213.577637 
	C2253.745850,1220.046387 2259.647949,1226.583618 2266.244873,1233.890137 
	C2264.337891,1235.562988 2261.854492,1238.081421 2259.042969,1240.154785 
	C2232.976318,1259.375732 2190.908447,1260.707153 2163.659180,1243.206665 
	C2145.710938,1231.679688 2136.097168,1214.659058 2132.406494,1194.165527 
	C2130.151367,1181.643311 2130.127930,1168.984375 2133.730713,1155.737305 
z"/>
<path fill="#C4C4C4" opacity="1.000000" stroke="none" 
	d="
M961.637939,1216.000244 
	C961.638062,1236.886108 961.638062,1256.771973 961.638062,1277.237549 
	C951.885986,1277.237549 943.093872,1277.237549 933.815186,1277.237549 
	C933.815186,1227.521729 933.815186,1178.065796 933.815186,1128.129272 
	C942.934570,1128.129272 951.781494,1128.129272 961.637878,1128.129272 
	C961.637878,1157.299072 961.637878,1186.149536 961.637939,1216.000244 
z"/>
<path fill="#C7C8C7" opacity="1.000000" stroke="none" 
	d="
M2581.884277,1110.324219 
	C2582.069580,1107.130127 2582.252441,1104.900879 2582.465088,1102.310303 
	C2591.620117,1102.310303 2600.165527,1102.310303 2609.429688,1102.310303 
	C2609.429688,1151.815430 2609.429688,1201.235352 2609.429688,1251.387695 
	C2600.908691,1251.387695 2592.117920,1251.387695 2581.882080,1251.387695 
	C2581.882080,1204.871216 2581.882080,1158.080200 2581.884277,1110.324219 
z"/>
<path fill="#C7C8C7" opacity="1.000000" stroke="none" 
	d="
M1856.000000,1429.990234 
	C1625.365356,1429.990234 1395.730713,1429.992676 1166.096069,1429.985474 
	C1148.666504,1429.984985 1149.974243,1431.277344 1149.973267,1413.692261 
	C1149.964355,1260.713623 1149.968750,1107.734863 1149.972168,954.756226 
	C1149.972534,939.967590 1149.986084,940.184143 1164.616821,939.905762 
	C1188.557983,939.450256 1212.611938,936.903198 1236.400269,938.496582 
	C1265.727051,940.461060 1294.971313,939.364746 1324.243042,939.824402 
	C1335.169556,939.996033 1346.173340,937.638062 1357.050415,938.200989 
	C1428.571045,941.902405 1500.129517,939.045227 1571.662109,939.875427 
	C1577.934692,939.948242 1584.216553,938.868835 1590.501099,938.424133 
	C1593.483765,938.213074 1596.491577,938.052551 1599.473633,938.186279 
	C1611.083374,938.706970 1622.686768,939.859619 1634.293823,939.876038 
	C1732.946533,940.015808 1831.599487,939.954895 1930.252441,939.961365 
	C1943.964355,939.962280 1943.986328,939.980347 1943.986816,953.645508 
	C1943.991333,1107.957275 1943.990967,1262.269165 1943.983643,1416.580933 
	C1943.983032,1429.950439 1943.955322,1429.975220 1930.988037,1429.984863 
	C1906.325317,1430.003174 1881.662720,1429.990234 1856.000000,1429.990234 
M1608.421387,1185.061646 
	C1613.825684,1185.999634 1616.859497,1184.514404 1617.481445,1180.172119 
	C1617.944458,1176.938843 1617.051636,1174.320312 1612.427856,1174.850586 
	C1611.279297,1178.202148 1614.337769,1183.785278 1606.780640,1182.984619 
	C1606.699707,1179.446289 1608.218994,1174.963013 1602.377319,1174.529297 
	C1601.259155,1178.733521 1600.281250,1182.410034 1599.209961,1186.437866 
	C1602.221558,1185.593994 1605.107300,1184.785278 1608.421387,1185.061646 
M1362.332275,1138.509521 
	C1356.960205,1138.706665 1358.159790,1134.620361 1357.713623,1131.525635 
	C1357.265259,1128.414795 1359.159546,1124.448975 1353.277954,1121.176514 
	C1353.277954,1126.840942 1352.966187,1131.039307 1353.347778,1135.173584 
	C1353.990601,1142.138794 1356.140869,1143.142944 1365.668213,1140.864136 
	C1367.072754,1140.611450 1369.678711,1140.441772 1369.702881,1140.093506 
	C1370.104858,1134.287231 1371.105713,1128.361206 1367.739014,1122.786865 
	C1366.517456,1127.944214 1365.295898,1133.101685 1362.332275,1138.509521 
M1593.185791,1132.352173 
	C1594.989624,1135.713623 1596.793335,1139.075073 1599.162842,1143.490845 
	C1601.460938,1140.368896 1603.048218,1138.212769 1604.657959,1136.026001 
	C1606.391968,1138.314209 1608.048462,1140.500122 1609.858521,1142.888672 
	C1613.935669,1140.444702 1613.833130,1137.207886 1613.928711,1132.478271 
	C1614.277100,1129.146729 1614.625488,1125.815186 1614.973755,1122.483643 
	C1614.024292,1122.361938 1613.074829,1122.240234 1612.125366,1122.118530 
	C1611.562378,1126.102539 1610.999390,1130.086670 1608.969238,1134.143799 
	C1607.782104,1131.587402 1606.594971,1129.030884 1605.015137,1125.628540 
	C1603.022217,1128.432007 1601.711792,1130.275513 1600.011719,1132.666992 
	C1598.711914,1128.352661 1597.698730,1124.989746 1596.653076,1121.519165 
	C1591.888306,1123.790527 1597.029419,1129.143677 1592.027100,1128.712891 
	C1590.718140,1123.361450 1587.179199,1121.149048 1581.835938,1121.456787 
	C1577.788696,1121.689941 1575.074097,1123.747925 1573.545898,1127.456055 
	C1571.200439,1133.147583 1573.432861,1140.038330 1578.242188,1141.945557 
	C1584.422607,1144.396729 1589.064453,1141.637573 1593.185791,1132.352173 
M1552.609009,1183.684937 
	C1547.375854,1176.444336 1544.176514,1174.775879 1539.117432,1176.648804 
	C1534.285767,1178.437500 1531.704102,1183.364136 1531.830933,1190.582153 
	C1531.848389,1191.573120 1531.849976,1192.573730 1531.988281,1193.551514 
	C1532.835449,1199.541260 1536.196045,1203.252197 1541.145508,1203.721191 
	C1546.255615,1204.205444 1550.868896,1200.362061 1552.132812,1194.347900 
	C1552.864746,1190.864380 1553.308960,1187.320435 1555.162231,1184.628174 
	C1558.534058,1190.731201 1557.667114,1199.002441 1564.307373,1203.678711 
	C1569.944336,1197.121582 1574.437866,1183.540161 1573.031738,1174.486816 
	C1569.905518,1182.627563 1567.511108,1188.862793 1564.876587,1195.723145 
	C1559.498047,1190.027588 1561.445679,1181.184204 1554.427612,1176.184082 
	C1554.248535,1179.449707 1554.124634,1181.711548 1552.609009,1183.684937 
M1328.983887,1089.555298 
	C1330.286255,1087.183960 1331.588623,1084.812744 1332.980713,1082.278198 
	C1343.082642,1080.254150 1345.998657,1076.817017 1344.747437,1068.134399 
	C1343.766357,1061.326782 1342.195435,1060.731689 1327.874390,1061.887329 
	C1327.874390,1070.718384 1327.874390,1079.579834 1328.983887,1089.555298 
M1349.643311,1066.904297 
	C1349.784912,1071.638184 1349.926636,1076.371948 1350.108154,1082.440063 
	C1355.406738,1078.598267 1353.664307,1074.682617 1353.877075,1071.399170 
	C1354.181519,1066.699219 1355.739624,1063.858765 1360.867065,1064.560059 
	C1364.430542,1069.670410 1359.844849,1076.426270 1366.194824,1083.053223 
	C1366.413086,1077.289551 1366.791504,1073.536865 1366.649414,1069.804199 
	C1366.311401,1060.925171 1364.162720,1059.481201 1354.818237,1061.352539 
	C1352.626709,1058.859985 1355.772827,1054.069458 1349.645630,1051.629395 
	C1349.645630,1056.804199 1349.645630,1060.982300 1349.643311,1066.904297 
M1371.749634,1063.406738 
	C1371.755127,1072.085083 1371.343994,1080.788818 1372.094360,1089.421997 
	C1372.784790,1089.504517 1373.475098,1089.587158 1374.165405,1089.669678 
	C1375.054810,1087.236572 1375.944214,1084.803345 1376.846680,1082.334351 
	C1378.748657,1081.966064 1380.771240,1081.881348 1382.545776,1081.174194 
	C1388.201538,1078.920288 1390.640259,1073.606934 1389.096313,1067.441406 
	C1387.590454,1061.428101 1385.705200,1060.526855 1377.488770,1061.696899 
	C1375.721069,1061.948608 1373.910034,1061.895996 1371.749634,1063.406738 
M1423.818848,1175.707886 
	C1422.967285,1184.764893 1422.882812,1193.779297 1424.015503,1203.766479 
	C1431.150146,1199.056030 1422.573853,1186.951416 1435.140259,1186.576904 
	C1435.827515,1192.142456 1436.473633,1197.375610 1437.119873,1202.608765 
	C1437.992676,1202.585083 1438.865601,1202.561523 1439.738403,1202.537842 
	C1439.911987,1199.185425 1440.288086,1195.828979 1440.219971,1192.481445 
	C1440.035034,1183.405029 1438.352783,1182.065430 1429.080688,1182.879517 
	C1427.642456,1180.081421 1426.255371,1177.382812 1423.818848,1175.707886 
M1586.827026,1199.753662 
	C1581.567261,1194.635376 1581.567261,1194.635376 1592.811890,1189.063477 
	C1590.496338,1185.843384 1580.867432,1190.569580 1584.230347,1181.013306 
	C1587.128784,1180.253174 1590.065430,1179.483032 1593.002075,1178.713013 
	C1592.923706,1178.135132 1592.845337,1177.557373 1592.766846,1176.979492 
	C1588.273682,1176.979492 1583.780518,1176.979492 1578.951904,1176.979492 
	C1578.951904,1185.991699 1578.951904,1194.153687 1578.951904,1203.250122 
	C1584.127197,1203.254272 1588.732666,1205.076050 1594.588745,1201.059937 
	C1591.486572,1200.458252 1589.967407,1200.163696 1586.827026,1199.753662 
M1643.732910,1116.607544 
	C1644.942505,1118.290161 1647.037598,1119.894043 1647.195312,1121.669922 
	C1647.661377,1126.919434 1647.361694,1132.236938 1647.361694,1137.126953 
	C1644.782959,1138.503540 1642.995483,1139.457642 1641.208130,1140.411743 
	C1641.344116,1140.828979 1641.480225,1141.246094 1641.616211,1141.663330 
	C1646.597412,1141.663330 1651.578735,1141.663330 1656.559937,1141.663330 
	C1657.530884,1140.947754 1658.501709,1140.232178 1659.472656,1139.516479 
	C1649.798218,1140.229492 1651.601562,1135.072754 1651.518188,1130.998291 
	C1651.404663,1125.449829 1651.489868,1119.897217 1651.489868,1114.050415 
	C1647.608154,1114.025879 1644.307861,1111.075073 1643.732910,1116.607544 
M1563.334595,1125.608032 
	C1564.381470,1130.984253 1565.428345,1136.360474 1566.475220,1141.736572 
	C1567.137085,1141.692993 1567.799072,1141.649292 1568.460938,1141.605591 
	C1568.460938,1136.508789 1568.940796,1131.341187 1568.205688,1126.352661 
	C1567.941284,1124.559570 1564.969238,1122.600952 1562.830688,1121.820923 
	C1560.999756,1121.153320 1558.594116,1122.061646 1556.709351,1122.246826 
	C1555.044312,1119.279663 1557.793579,1115.032227 1553.098877,1113.711304 
	C1550.771362,1127.213989 1551.409302,1137.376709 1556.019287,1143.188721 
	C1556.019287,1138.410400 1556.079346,1135.210693 1556.003784,1132.014282 
	C1555.910522,1128.071655 1557.918457,1125.887207 1563.334595,1125.608032 
M1714.829956,1139.104980 
	C1713.335571,1137.801514 1711.841187,1136.498047 1709.200684,1134.194946 
	C1715.152344,1133.660645 1719.334473,1133.285156 1723.465820,1132.914185 
	C1723.606445,1125.198364 1722.436646,1122.743286 1717.889771,1121.823486 
	C1713.767090,1120.989624 1710.005493,1121.588501 1707.475952,1125.598267 
	C1704.954102,1129.596313 1705.112061,1136.304932 1707.966187,1139.578857 
	C1711.149292,1143.230225 1716.129028,1143.432617 1724.431763,1139.312378 
	C1720.593994,1139.312378 1718.482178,1139.312378 1714.829956,1139.104980 
M1798.734009,1128.207397 
	C1797.702881,1128.976562 1796.671875,1129.745605 1794.898071,1131.068848 
	C1801.529053,1132.598999 1800.137573,1137.354126 1800.477173,1141.480347 
	C1801.073364,1148.723633 1801.802368,1149.301758 1810.256348,1149.281738 
	C1800.761597,1145.715210 1804.728638,1137.125366 1803.726074,1131.147827 
	C1802.808228,1125.674805 1803.222290,1117.940796 1811.443848,1112.477173 
	C1804.272339,1112.747925 1801.320312,1114.658203 1800.602173,1119.325073 
	C1800.200073,1121.937988 1800.056030,1124.590820 1798.734009,1128.207397 
M1532.815674,1138.858521 
	C1530.668457,1139.351562 1529.643311,1141.064331 1531.987427,1141.731201 
	C1535.027344,1142.596191 1538.624634,1142.531738 1541.717651,1141.779907 
	C1543.464355,1141.355347 1545.667358,1138.853516 1545.853149,1137.095825 
	C1546.032227,1135.402832 1544.248901,1132.993042 1542.661499,1131.746948 
	C1540.501221,1130.051514 1537.708374,1129.162231 1533.296509,1127.001465 
	C1538.490479,1125.432495 1541.485840,1124.527588 1544.481323,1123.622681 
	C1541.683838,1121.903564 1538.966064,1121.098877 1536.747192,1121.823120 
	C1534.524292,1122.548462 1531.645386,1124.536743 1531.205078,1126.463013 
	C1530.821045,1128.143555 1533.063721,1130.930542 1534.816650,1132.459595 
	C1536.816040,1134.203613 1539.558105,1135.096313 1541.977295,1136.358887 
	C1541.841675,1137.045288 1541.705933,1137.731689 1541.570312,1138.418091 
	C1539.149170,1138.632446 1536.727905,1138.846680 1532.815674,1138.858521 
M1396.692749,1189.833252 
	C1392.866577,1182.339111 1388.359497,1180.348267 1383.031494,1183.798706 
	C1378.152466,1186.958374 1376.729248,1194.896973 1380.170410,1199.756714 
	C1383.557373,1204.539795 1389.573364,1204.947754 1394.926147,1200.737427 
	C1391.670898,1198.583374 1385.101318,1202.598877 1384.187988,1194.747314 
	C1387.571899,1194.547852 1390.557861,1194.638916 1393.417114,1194.080566 
	C1394.676880,1193.834595 1395.678711,1192.268799 1396.692749,1189.833252 
M1661.565796,1135.593262 
	C1662.811401,1137.457153 1663.675293,1139.854492 1665.381226,1141.075073 
	C1669.061279,1143.708252 1675.141113,1142.624512 1677.994385,1139.386597 
	C1680.892456,1136.097290 1681.366211,1129.217163 1678.952271,1125.474243 
	C1676.710693,1121.998535 1671.817505,1120.407715 1667.546265,1122.083130 
	C1662.034668,1124.245117 1660.815186,1128.810181 1661.565796,1135.593262 
M1375.182739,1129.505371 
	C1375.659180,1133.575073 1374.009399,1138.000732 1377.031738,1142.024048 
	C1382.971802,1138.144897 1374.801025,1125.974487 1386.335327,1125.928711 
	C1390.335815,1130.691162 1385.494629,1137.421265 1391.108765,1142.112671 
	C1391.614990,1140.084351 1392.109375,1138.876831 1392.195557,1137.640991 
	C1393.282227,1122.055420 1391.852661,1120.777222 1375.763550,1123.111084 
	C1375.580322,1124.640869 1375.387329,1126.252563 1375.182739,1129.505371 
M1342.256348,1263.042725 
	C1341.942871,1258.657715 1342.329468,1254.612061 1346.033325,1253.700073 
	C1344.636963,1249.774170 1342.957764,1246.492554 1342.346558,1243.022949 
	C1341.208740,1236.562500 1341.304077,1236.383423 1331.145508,1235.857544 
	C1340.942627,1240.246216 1339.360962,1248.395264 1338.985474,1254.058838 
	C1338.601196,1259.854858 1340.979736,1267.807007 1331.246338,1272.505005 
	C1340.684448,1271.417114 1340.684448,1271.417114 1342.256348,1263.042725 
M1428.033081,1142.135864 
	C1430.447510,1141.998291 1432.861938,1141.860596 1437.167480,1141.615112 
	C1426.978394,1137.188599 1426.978394,1137.188599 1428.410889,1126.413452 
	C1430.562622,1125.565430 1432.875854,1124.653687 1434.912842,1123.850952 
	C1431.308594,1121.341309 1427.979614,1119.023315 1424.729370,1116.760254 
	C1422.888550,1119.009399 1420.971313,1121.351807 1420.120850,1122.390991 
	C1421.439819,1126.512207 1422.398315,1129.684082 1423.473267,1132.816040 
	C1424.490845,1135.780518 1425.630859,1138.703125 1428.033081,1142.135864 
M1489.985962,1133.091064 
	C1489.990234,1128.546753 1491.391724,1125.343628 1497.738037,1125.777222 
	C1498.471558,1131.127930 1499.195312,1136.407227 1499.918945,1141.686646 
	C1504.144165,1135.738525 1504.625000,1129.245605 1501.081055,1124.109253 
	C1497.320923,1118.659424 1491.543457,1123.562988 1485.908325,1122.981689 
	C1486.719727,1129.636230 1484.732544,1135.672119 1487.615723,1142.064575 
	C1488.795532,1140.689575 1489.470947,1140.261475 1489.553467,1139.739746 
	C1489.811401,1138.107788 1489.845459,1136.440430 1489.985962,1133.091064 
M1444.256226,1194.590454 
	C1444.516602,1195.551514 1444.599731,1196.610107 1445.066162,1197.457886 
	C1448.019409,1202.827026 1451.503418,1204.700806 1456.163696,1203.556152 
	C1461.023438,1202.362305 1464.251221,1197.727295 1464.004272,1192.215332 
	C1463.789062,1187.411621 1461.701172,1183.911987 1456.848389,1182.591064 
	C1451.913818,1181.247803 1447.687256,1183.583252 1445.010254,1189.167847 
	C1444.455200,1190.325928 1444.431152,1191.738647 1444.256226,1194.590454 
M1472.688110,1142.560669 
	C1475.186646,1141.153687 1478.360107,1140.296265 1480.045166,1138.226929 
	C1483.711304,1133.724121 1482.329346,1126.129028 1477.950195,1123.039062 
	C1473.885986,1120.171265 1467.581543,1121.137939 1464.489380,1125.103027 
	C1459.476562,1131.531006 1462.523071,1139.385254 1472.688110,1142.560669 
M1299.172363,1303.932861 
	C1293.951416,1296.608643 1292.880615,1296.163086 1286.568604,1298.688721 
	C1296.732056,1304.720581 1296.888916,1305.955078 1288.238647,1311.655640 
	C1287.102417,1315.361694 1292.620361,1319.284790 1287.911499,1322.967529 
	C1287.879272,1322.992554 1289.210571,1324.761230 1289.905273,1325.715698 
	C1290.800415,1324.634033 1292.690308,1323.098022 1292.436035,1322.541382 
	C1290.026123,1317.264160 1292.106445,1314.139771 1296.527588,1311.227173 
	C1298.129761,1310.171509 1298.583130,1307.372192 1299.172363,1303.932861 
M1345.918701,1113.157471 
	C1335.294922,1111.474487 1337.927368,1124.335815 1330.463867,1126.433838 
	C1340.338135,1127.966797 1333.183594,1138.027710 1339.451904,1142.336182 
	C1340.004883,1137.233765 1340.450439,1133.123901 1340.878906,1129.170654 
	C1343.578735,1128.118896 1345.958008,1127.192017 1350.322510,1125.491821 
	C1345.535767,1124.276367 1343.089722,1123.655273 1340.771118,1123.066406 
	C1340.241333,1118.280029 1342.430908,1116.565918 1346.427734,1116.238770 
	C1348.675171,1116.054810 1349.394897,1115.034058 1345.918701,1113.157471 
M1517.402344,1178.784546 
	C1515.403687,1175.490967 1513.257324,1176.281738 1513.089600,1179.442627 
	C1512.676270,1187.233887 1513.018799,1195.065186 1513.057739,1202.966309 
	C1518.885742,1203.683350 1523.246948,1204.598999 1529.410522,1201.231689 
	C1524.313721,1200.155518 1521.338013,1199.527222 1517.658936,1198.750488 
	C1517.658936,1192.320312 1517.658936,1186.367676 1517.402344,1178.784546 
M1737.676514,1121.961792 
	C1739.276245,1119.039917 1740.875977,1116.117920 1742.475830,1113.196045 
	C1727.799194,1123.376953 1728.023193,1143.141968 1743.120605,1149.796509 
	C1737.227783,1141.154175 1733.205688,1132.959229 1737.676514,1121.961792 
M1697.390259,1126.000610 
	C1696.037109,1129.146606 1694.684082,1132.292725 1693.282471,1135.551392 
	C1688.809692,1131.697510 1691.119629,1124.134399 1682.742310,1121.337036 
	C1685.546265,1128.652466 1687.518066,1134.510254 1690.049927,1140.115112 
	C1691.412109,1143.130859 1694.569580,1143.020996 1695.954224,1139.922729 
	C1698.451904,1134.333008 1700.464966,1128.526611 1702.680420,1122.810791 
	C1702.127686,1122.492310 1701.574951,1122.173950 1701.022217,1121.855469 
	C1699.975952,1122.749146 1698.929688,1123.642944 1697.390259,1126.000610 
M1764.135620,1127.749390 
	C1762.574463,1121.612183 1760.738770,1115.674927 1754.153442,1112.598877 
	C1756.259888,1119.480591 1759.593140,1125.630859 1759.613525,1131.791870 
	C1759.633423,1137.753906 1756.243408,1143.727295 1753.742676,1151.614502 
	C1761.485840,1144.708618 1764.800781,1137.960693 1764.135620,1127.749390 
M1443.585327,1139.777100 
	C1447.965088,1142.726318 1447.965088,1142.726318 1458.000977,1140.874756 
	C1449.623535,1136.682739 1454.177612,1128.889526 1451.723511,1122.494385 
	C1449.181763,1122.494385 1446.510620,1122.494385 1443.211914,1122.494385 
	C1449.963745,1129.217896 1450.232178,1133.246826 1443.585327,1139.777100 
M1408.048340,1139.204224 
	C1403.743408,1138.402222 1401.928223,1135.688354 1402.121338,1131.453979 
	C1402.441650,1124.426392 1408.958984,1125.484985 1414.308228,1123.588013 
	C1405.372314,1121.092773 1402.065552,1121.862549 1399.370117,1126.350464 
	C1397.116943,1130.102173 1397.501587,1136.285645 1400.184326,1139.437866 
	C1403.143433,1142.914917 1406.733398,1143.142212 1414.122925,1139.723999 
	C1411.884644,1139.472290 1410.707275,1139.339844 1408.048340,1139.204224 
M1403.368530,1199.992065 
	C1407.546875,1204.018188 1411.906006,1205.692139 1417.742432,1201.046631 
	C1412.992432,1199.217407 1406.913574,1201.427002 1406.031982,1194.636719 
	C1404.978882,1186.524048 1411.539795,1186.084595 1418.866699,1184.763672 
	C1405.112427,1180.327881 1400.239014,1185.483154 1403.368530,1199.992065 
M1320.895630,1063.989746 
	C1320.376587,1054.299194 1315.381958,1050.501953 1308.063965,1054.955444 
	C1309.863037,1055.662720 1311.442871,1056.027954 1312.742920,1056.840698 
	C1317.556274,1059.850098 1317.818359,1062.128540 1312.923462,1065.214600 
	C1308.185303,1068.202026 1310.313599,1070.622803 1311.891602,1073.528198 
	C1314.985474,1070.484985 1317.627319,1067.886353 1320.895630,1063.989746 
M1297.881104,1061.688843 
	C1296.792480,1061.192017 1295.165405,1059.968262 1294.700195,1060.312988 
	C1290.813721,1063.192749 1287.141113,1066.360962 1282.767334,1069.967041 
	C1287.886597,1074.243774 1291.175781,1079.343628 1299.833252,1080.920410 
	C1295.232666,1076.183350 1292.227295,1073.088867 1289.027100,1069.793701 
	C1292.176392,1067.056152 1294.640991,1064.913818 1297.881104,1061.688843 
M1310.174683,1304.238281 
	C1309.282227,1304.356323 1308.389771,1304.474243 1306.484497,1304.726074 
	C1310.071411,1308.454224 1313.090942,1311.592651 1315.940308,1314.554321 
	C1313.703491,1318.843872 1307.642090,1319.485107 1307.772217,1326.736938 
	C1313.339111,1322.213989 1317.737671,1318.640137 1322.856323,1314.481445 
	C1318.461060,1310.857666 1314.941895,1307.956421 1310.174683,1304.238281 
M1629.988037,1208.940796 
	C1633.686279,1206.449341 1635.437134,1203.092041 1633.376465,1198.897461 
	C1632.838013,1197.801270 1630.466064,1197.605957 1629.410889,1197.185913 
	C1627.955811,1201.836426 1626.754883,1205.675049 1625.446411,1209.856934 
	C1626.217163,1209.821167 1627.432007,1209.764771 1629.988037,1208.940796 
M1494.532837,1174.350708 
	C1492.527222,1176.352783 1489.679199,1178.019287 1488.716187,1180.436768 
	C1487.321045,1183.938477 1488.857422,1186.671875 1493.521729,1186.548462 
	C1494.328491,1182.295654 1495.079590,1178.336060 1494.532837,1174.350708 
M1499.212158,1181.078247 
	C1499.290894,1184.147583 1499.536743,1187.055420 1503.722900,1186.308960 
	C1504.736816,1182.262817 1505.660767,1178.575317 1506.705688,1174.405884 
	C1503.105469,1174.685913 1500.811523,1176.498169 1499.212158,1181.078247 
M1633.613037,1185.033081 
	C1632.221436,1183.169922 1630.667236,1181.044189 1628.372925,1183.570801 
	C1627.643066,1184.374390 1627.596558,1187.002319 1628.305176,1187.681641 
	C1630.386475,1189.676758 1632.342285,1188.783691 1633.613037,1185.033081 
M1621.380249,1150.461182 
	C1626.684448,1150.411133 1631.988647,1150.360962 1637.292847,1150.310791 
	C1628.349365,1146.726074 1622.367920,1146.916138 1616.567261,1149.653931 
	C1617.736938,1149.961914 1618.636230,1150.198730 1621.380249,1150.461182 
M1313.485352,1076.450806 
	C1312.194946,1077.290894 1310.904541,1078.130981 1309.614136,1078.971069 
	C1310.400757,1079.814331 1311.187500,1080.657593 1311.974121,1081.500854 
	C1312.759033,1080.173096 1313.543945,1078.845215 1313.485352,1076.450806 
z"/>
<path fill="#6C6C6C" opacity="1.000000" stroke="none" 
	d="
M1631.041748,1455.748657 
	C1629.872314,1465.410645 1627.246948,1467.841187 1618.131348,1468.108398 
	C1611.484375,1468.303467 1604.827148,1468.163330 1598.174561,1468.163086 
	C1557.593262,1468.161743 1517.012085,1468.188721 1476.430786,1468.133789 
	C1465.461914,1468.118896 1463.761475,1466.885742 1460.079102,1456.667969 
	C1461.700562,1455.756714 1463.346191,1455.462402 1464.991943,1455.462891 
	C1520.035767,1455.475830 1575.079712,1455.517212 1631.041748,1455.748657 
z"/>
<path fill="#C4C4C4" opacity="1.000000" stroke="none" 
	d="
M1547.556885,916.327881 
	C1551.470581,918.096252 1552.661865,920.596436 1550.801025,923.770203 
	C1549.199341,926.501770 1546.870239,928.522949 1543.488037,926.254883 
	C1540.599976,924.318237 1539.559448,921.528625 1541.889526,918.686218 
	C1542.965820,917.373047 1545.162109,916.978149 1547.556885,916.327881 
z"/>
<path fill="#2A2B2A" opacity="1.000000" stroke="none" 
	d="
M1328.429199,1088.998291 
	C1327.874390,1079.579834 1327.874390,1070.718384 1327.874390,1061.887329 
	C1342.195435,1060.731689 1343.766357,1061.326782 1344.747437,1068.134399 
	C1345.998657,1076.817017 1343.082642,1080.254150 1332.980713,1082.278198 
	C1331.588623,1084.812744 1330.286255,1087.183960 1328.429199,1088.998291 
M1332.747681,1066.401855 
	C1332.387573,1070.081421 1332.027466,1073.761108 1331.629395,1077.828125 
	C1334.203735,1077.828125 1335.620605,1078.208252 1336.694214,1077.762207 
	C1341.309204,1075.845215 1341.293335,1071.908569 1340.408325,1067.900513 
	C1339.588379,1064.186890 1337.420776,1063.058105 1332.747681,1066.401855 
z"/>
<path fill="#2A2B2A" opacity="1.000000" stroke="none" 
	d="
M1349.644531,1066.032471 
	C1349.645630,1060.982300 1349.645630,1056.804199 1349.645630,1051.629395 
	C1355.772827,1054.069458 1352.626709,1058.859985 1354.818237,1061.352539 
	C1364.162720,1059.481201 1366.311401,1060.925171 1366.649414,1069.804199 
	C1366.791504,1073.536865 1366.413086,1077.289551 1366.194824,1083.053223 
	C1359.844849,1076.426270 1364.430542,1069.670410 1360.867065,1064.560059 
	C1355.739624,1063.858765 1354.181519,1066.699219 1353.877075,1071.399170 
	C1353.664307,1074.682617 1355.406738,1078.598267 1350.108154,1082.440063 
	C1349.926636,1076.371948 1349.784912,1071.638184 1349.644531,1066.032471 
z"/>
<path fill="#2A2B2A" opacity="1.000000" stroke="none" 
	d="
M1371.934326,1062.695068 
	C1373.910034,1061.895996 1375.721069,1061.948608 1377.488770,1061.696899 
	C1385.705200,1060.526855 1387.590454,1061.428101 1389.096313,1067.441406 
	C1390.640259,1073.606934 1388.201538,1078.920288 1382.545776,1081.174194 
	C1380.771240,1081.881348 1378.748657,1081.966064 1376.846680,1082.334351 
	C1375.944214,1084.803345 1375.054810,1087.236572 1374.165405,1089.669678 
	C1373.475098,1089.587158 1372.784790,1089.504517 1372.094360,1089.421997 
	C1371.343994,1080.788818 1371.755127,1072.085083 1371.934326,1062.695068 
M1383.122192,1076.793091 
	C1386.212769,1072.479370 1386.154297,1068.325439 1382.833374,1064.241089 
	C1375.089478,1066.805054 1375.089478,1066.805054 1376.962402,1077.851440 
	C1378.534546,1077.776001 1380.145386,1077.698730 1383.122192,1076.793091 
z"/>
<path fill="#6C6C6C" opacity="1.000000" stroke="none" 
	d="
M1424.343506,1175.196045 
	C1426.255371,1177.382812 1427.642456,1180.081421 1429.080688,1182.879517 
	C1438.352783,1182.065430 1440.035034,1183.405029 1440.219971,1192.481445 
	C1440.288086,1195.828979 1439.911987,1199.185425 1439.738403,1202.537842 
	C1438.865601,1202.561523 1437.992676,1202.585083 1437.119873,1202.608765 
	C1436.473633,1197.375610 1435.827515,1192.142456 1435.140259,1186.576904 
	C1422.573853,1186.951416 1431.150146,1199.056030 1424.015503,1203.766479 
	C1422.882812,1193.779297 1422.967285,1184.764893 1424.343506,1175.196045 
z"/>
<path fill="#636363" opacity="1.000000" stroke="none" 
	d="
M1553.882690,1183.803589 
	C1553.308960,1187.320435 1552.864746,1190.864380 1552.132812,1194.347900 
	C1550.868896,1200.362061 1546.255615,1204.205444 1541.145508,1203.721191 
	C1536.196045,1203.252197 1532.835449,1199.541260 1531.988281,1193.551514 
	C1531.849976,1192.573730 1531.848389,1191.573120 1531.830933,1190.582153 
	C1531.704102,1183.364136 1534.285767,1178.437500 1539.117432,1176.648804 
	C1544.176514,1174.775879 1547.375854,1176.444336 1553.272949,1183.788330 
	C1553.937012,1183.891602 1553.882690,1183.803589 1553.882690,1183.803589 
M1538.496094,1181.593872 
	C1534.973389,1185.902710 1535.386475,1190.863403 1536.696411,1195.660156 
	C1537.817261,1199.765503 1542.129639,1201.167358 1545.251343,1198.958496 
	C1548.062134,1196.969727 1549.338379,1190.196533 1547.915894,1185.140381 
	C1546.714722,1180.870728 1544.123291,1179.203369 1538.496094,1181.593872 
z"/>
<path fill="#6C6C6C" opacity="1.000000" stroke="none" 
	d="
M1587.637695,1199.811279 
	C1589.967407,1200.163696 1591.486572,1200.458252 1594.588745,1201.059937 
	C1588.732666,1205.076050 1584.127197,1203.254272 1578.951904,1203.250122 
	C1578.951904,1194.153687 1578.951904,1185.991699 1578.951904,1176.979492 
	C1583.780518,1176.979492 1588.273682,1176.979492 1592.766846,1176.979492 
	C1592.845337,1177.557373 1592.923706,1178.135132 1593.002075,1178.713013 
	C1590.065430,1179.483032 1587.128784,1180.253174 1584.230347,1181.013306 
	C1580.867432,1190.569580 1590.496338,1185.843384 1592.811890,1189.063477 
	C1581.567261,1194.635376 1581.567261,1194.635376 1587.637695,1199.811279 
z"/>
<path fill="#2A2B2A" opacity="1.000000" stroke="none" 
	d="
M1643.029053,1116.199463 
	C1644.307861,1111.075073 1647.608154,1114.025879 1651.489868,1114.050415 
	C1651.489868,1119.897217 1651.404663,1125.449829 1651.518188,1130.998291 
	C1651.601562,1135.072754 1649.798218,1140.229492 1659.472656,1139.516479 
	C1658.501709,1140.232178 1657.530884,1140.947754 1656.559937,1141.663330 
	C1651.578735,1141.663330 1646.597412,1141.663330 1641.616211,1141.663330 
	C1641.480225,1141.246094 1641.344116,1140.828979 1641.208130,1140.411743 
	C1642.995483,1139.457642 1644.782959,1138.503540 1647.361694,1137.126953 
	C1647.361694,1132.236938 1647.661377,1126.919434 1647.195312,1121.669922 
	C1647.037598,1119.894043 1644.942505,1118.290161 1643.029053,1116.199463 
z"/>
<path fill="#161616" opacity="1.000000" stroke="none" 
	d="
M1562.463867,1125.296387 
	C1557.918457,1125.887207 1555.910522,1128.071655 1556.003784,1132.014282 
	C1556.079346,1135.210693 1556.019287,1138.410400 1556.019287,1143.188721 
	C1551.409302,1137.376709 1550.771362,1127.213989 1553.098877,1113.711304 
	C1557.793579,1115.032227 1555.044312,1119.279663 1556.709351,1122.246826 
	C1558.594116,1122.061646 1560.999756,1121.153320 1562.830688,1121.820923 
	C1564.969238,1122.600952 1567.941284,1124.559570 1568.205688,1126.352661 
	C1568.940796,1131.341187 1568.460938,1136.508789 1568.460938,1141.605591 
	C1567.799072,1141.649292 1567.137085,1141.692993 1566.475220,1141.736572 
	C1565.428345,1136.360474 1564.381470,1130.984253 1562.463867,1125.296387 
z"/>
<path fill="#2A2B2A" opacity="1.000000" stroke="none" 
	d="
M1715.600098,1139.208740 
	C1718.482178,1139.312378 1720.593994,1139.312378 1724.431763,1139.312378 
	C1716.129028,1143.432617 1711.149292,1143.230225 1707.966187,1139.578857 
	C1705.112061,1136.304932 1704.954102,1129.596313 1707.475952,1125.598267 
	C1710.005493,1121.588501 1713.767090,1120.989624 1717.889771,1121.823486 
	C1722.436646,1122.743286 1723.606445,1125.198364 1723.465820,1132.914185 
	C1719.334473,1133.285156 1715.152344,1133.660645 1709.200684,1134.194946 
	C1711.841187,1136.498047 1713.335571,1137.801514 1715.600098,1139.208740 
M1716.551880,1124.697021 
	C1712.999146,1124.120483 1711.172729,1125.744263 1710.663330,1129.426758 
	C1713.699951,1129.426758 1716.583984,1129.426758 1719.593140,1129.426758 
	C1719.304810,1128.152710 1719.277588,1127.492920 1719.001587,1126.962646 
	C1718.717773,1126.417114 1718.191284,1125.998047 1716.551880,1124.697021 
z"/>
<path fill="#636363" opacity="1.000000" stroke="none" 
	d="
M1553.968750,1183.932373 
	C1554.124634,1181.711548 1554.248535,1179.449707 1554.427612,1176.184082 
	C1561.445679,1181.184204 1559.498047,1190.027588 1564.876587,1195.723145 
	C1567.511108,1188.862793 1569.905518,1182.627563 1573.031738,1174.486816 
	C1574.437866,1183.540161 1569.944336,1197.121582 1564.307373,1203.678711 
	C1557.667114,1199.002441 1558.534058,1190.731201 1554.522461,1184.215820 
	C1553.882690,1183.803589 1553.937012,1183.891602 1553.968750,1183.932373 
z"/>
<path fill="#2A2B2A" opacity="1.000000" stroke="none" 
	d="
M1799.264771,1127.716553 
	C1800.056030,1124.590820 1800.200073,1121.937988 1800.602173,1119.325073 
	C1801.320312,1114.658203 1804.272339,1112.747925 1811.443848,1112.477173 
	C1803.222290,1117.940796 1802.808228,1125.674805 1803.726074,1131.147827 
	C1804.728638,1137.125366 1800.761597,1145.715210 1810.256348,1149.281738 
	C1801.802368,1149.301758 1801.073364,1148.723633 1800.477173,1141.480347 
	C1800.137573,1137.354126 1801.529053,1132.598999 1794.898071,1131.068848 
	C1796.671875,1129.745605 1797.702881,1128.976562 1799.264771,1127.716553 
z"/>
<path fill="#333333" opacity="1.000000" stroke="none" 
	d="
M1613.600830,1133.919678 
	C1613.833130,1137.207886 1613.935669,1140.444702 1609.858521,1142.888672 
	C1608.048462,1140.500122 1606.391968,1138.314209 1604.657959,1136.026001 
	C1603.048218,1138.212769 1601.460938,1140.368896 1599.162842,1143.490845 
	C1596.793335,1139.075073 1594.989624,1135.713623 1592.521606,1132.468872 
	C1591.889893,1131.772217 1591.922485,1130.958984 1591.954956,1130.145630 
	C1597.029419,1129.143677 1591.888306,1123.790527 1596.653076,1121.519165 
	C1597.698730,1124.989746 1598.711914,1128.352661 1600.011719,1132.666992 
	C1601.711792,1130.275513 1603.022217,1128.432007 1605.015137,1125.628540 
	C1606.594971,1129.030884 1607.782104,1131.587402 1610.222900,1133.996460 
	C1612.184692,1133.872681 1612.892822,1133.896118 1613.600830,1133.919678 
z"/>
<path fill="#2A2B2A" opacity="1.000000" stroke="none" 
	d="
M1533.561279,1138.959717 
	C1536.727905,1138.846680 1539.149170,1138.632446 1541.570312,1138.418091 
	C1541.705933,1137.731689 1541.841675,1137.045288 1541.977295,1136.358887 
	C1539.558105,1135.096313 1536.816040,1134.203613 1534.816650,1132.459595 
	C1533.063721,1130.930542 1530.821045,1128.143555 1531.205078,1126.463013 
	C1531.645386,1124.536743 1534.524292,1122.548462 1536.747192,1121.823120 
	C1538.966064,1121.098877 1541.683838,1121.903564 1544.481323,1123.622681 
	C1541.485840,1124.527588 1538.490479,1125.432495 1533.296509,1127.001465 
	C1537.708374,1129.162231 1540.501221,1130.051514 1542.661499,1131.746948 
	C1544.248901,1132.993042 1546.032227,1135.402832 1545.853149,1137.095825 
	C1545.667358,1138.853516 1543.464355,1141.355347 1541.717651,1141.779907 
	C1538.624634,1142.531738 1535.027344,1142.596191 1531.987427,1141.731201 
	C1529.643311,1141.064331 1530.668457,1139.351562 1533.561279,1138.959717 
z"/>
<path fill="#6C6C6C" opacity="1.000000" stroke="none" 
	d="
M1396.745117,1190.567749 
	C1395.678711,1192.268799 1394.676880,1193.834595 1393.417114,1194.080566 
	C1390.557861,1194.638916 1387.571899,1194.547852 1384.187988,1194.747314 
	C1385.101318,1202.598877 1391.670898,1198.583374 1394.926147,1200.737427 
	C1389.573364,1204.947754 1383.557373,1204.539795 1380.170410,1199.756714 
	C1376.729248,1194.896973 1378.152466,1186.958374 1383.031494,1183.798706 
	C1388.359497,1180.348267 1392.866577,1182.339111 1396.745117,1190.567749 
M1384.605103,1187.456543 
	C1386.243042,1191.937866 1386.243042,1191.937866 1391.713257,1189.104858 
	C1390.875977,1185.624146 1388.531860,1185.551514 1384.605103,1187.456543 
z"/>
<path fill="#161616" opacity="1.000000" stroke="none" 
	d="
M1661.438232,1134.881348 
	C1660.815186,1128.810181 1662.034668,1124.245117 1667.546265,1122.083130 
	C1671.817505,1120.407715 1676.710693,1121.998535 1678.952271,1125.474243 
	C1681.366211,1129.217163 1680.892456,1136.097290 1677.994385,1139.386597 
	C1675.141113,1142.624512 1669.061279,1143.708252 1665.381226,1141.075073 
	C1663.675293,1139.854492 1662.811401,1137.457153 1661.438232,1134.881348 
M1667.181030,1137.984253 
	C1670.520142,1140.470703 1674.144897,1139.981079 1675.333496,1136.394897 
	C1676.319824,1133.418945 1675.300537,1129.561646 1674.383789,1126.316895 
	C1674.141479,1125.459473 1670.734619,1124.651855 1669.229492,1125.157227 
	C1665.036133,1126.565308 1664.544678,1130.215088 1665.225952,1134.084717 
	C1665.395264,1135.046265 1665.870361,1135.953979 1667.181030,1137.984253 
z"/>
<path fill="#6C6C6C" opacity="1.000000" stroke="none" 
	d="
M1375.188477,1128.684814 
	C1375.387329,1126.252563 1375.580322,1124.640869 1375.763550,1123.111084 
	C1391.852661,1120.777222 1393.282227,1122.055420 1392.195557,1137.640991 
	C1392.109375,1138.876831 1391.614990,1140.084351 1391.108765,1142.112671 
	C1385.494629,1137.421265 1390.335815,1130.691162 1386.335327,1125.928711 
	C1374.801025,1125.974487 1382.971802,1138.144897 1377.031738,1142.024048 
	C1374.009399,1138.000732 1375.659180,1133.575073 1375.188477,1128.684814 
z"/>
<path fill="#2A2B2A" opacity="1.000000" stroke="none" 
	d="
M1591.990967,1129.429199 
	C1591.922485,1130.958984 1591.889893,1131.772217 1591.897949,1133.194946 
	C1589.064453,1141.637573 1584.422607,1144.396729 1578.242188,1141.945557 
	C1573.432861,1140.038330 1571.200439,1133.147583 1573.545898,1127.456055 
	C1575.074097,1123.747925 1577.788696,1121.689941 1581.835938,1121.456787 
	C1587.179199,1121.149048 1590.718140,1123.361450 1591.990967,1129.429199 
M1587.563232,1128.304077 
	C1585.565063,1124.970459 1582.384888,1123.135498 1579.577637,1126.138916 
	C1577.742554,1128.102295 1577.092651,1132.077026 1577.518066,1134.909668 
	C1577.772461,1136.603760 1581.210449,1139.121704 1583.068726,1139.000000 
	C1586.844482,1138.752563 1588.265137,1135.478516 1588.051758,1131.737183 
	C1588.014282,1131.079346 1587.960571,1130.422485 1587.563232,1128.304077 
z"/>
<path fill="#2A2B2A" opacity="1.000000" stroke="none" 
	d="
M1342.250610,1263.822266 
	C1340.684448,1271.417114 1340.684448,1271.417114 1331.246338,1272.505005 
	C1340.979736,1267.807007 1338.601196,1259.854858 1338.985474,1254.058838 
	C1339.360962,1248.395264 1340.942627,1240.246216 1331.145508,1235.857544 
	C1341.304077,1236.383423 1341.208740,1236.562500 1342.346558,1243.022949 
	C1342.957764,1246.492554 1344.636963,1249.774170 1346.033325,1253.700073 
	C1342.329468,1254.612061 1341.942871,1258.657715 1342.250610,1263.822266 
z"/>
<path fill="#636363" opacity="1.000000" stroke="none" 
	d="
M1427.375000,1141.890015 
	C1425.630859,1138.703125 1424.490845,1135.780518 1423.473267,1132.816040 
	C1422.398315,1129.684082 1421.439819,1126.512207 1420.120850,1122.390991 
	C1420.971313,1121.351807 1422.888550,1119.009399 1424.729370,1116.760254 
	C1427.979614,1119.023315 1431.308594,1121.341309 1434.912842,1123.850952 
	C1432.875854,1124.653687 1430.562622,1125.565430 1428.410889,1126.413452 
	C1426.978394,1137.188599 1426.978394,1137.188599 1437.167480,1141.615112 
	C1432.861938,1141.860596 1430.447510,1141.998291 1427.375000,1141.890015 
z"/>
<path fill="#636363" opacity="1.000000" stroke="none" 
	d="
M1489.976074,1133.938965 
	C1489.845459,1136.440430 1489.811401,1138.107788 1489.553467,1139.739746 
	C1489.470947,1140.261475 1488.795532,1140.689575 1487.615723,1142.064575 
	C1484.732544,1135.672119 1486.719727,1129.636230 1485.908325,1122.981689 
	C1491.543457,1123.562988 1497.320923,1118.659424 1501.081055,1124.109253 
	C1504.625000,1129.245605 1504.144165,1135.738525 1499.918945,1141.686646 
	C1499.195312,1136.407227 1498.471558,1131.127930 1497.738037,1125.777222 
	C1491.391724,1125.343628 1489.990234,1128.546753 1489.976074,1133.938965 
z"/>
<path fill="#6C6C6C" opacity="1.000000" stroke="none" 
	d="
M1444.209229,1193.812256 
	C1444.431152,1191.738647 1444.455200,1190.325928 1445.010254,1189.167847 
	C1447.687256,1183.583252 1451.913818,1181.247803 1456.848389,1182.591064 
	C1461.701172,1183.911987 1463.789062,1187.411621 1464.004272,1192.215332 
	C1464.251221,1197.727295 1461.023438,1202.362305 1456.163696,1203.556152 
	C1451.503418,1204.700806 1448.019409,1202.827026 1445.066162,1197.457886 
	C1444.599731,1196.610107 1444.516602,1195.551514 1444.209229,1193.812256 
M1456.447388,1186.471558 
	C1452.631226,1185.332764 1449.608398,1186.748657 1448.968262,1190.443481 
	C1448.526001,1192.996338 1449.459595,1196.113281 1450.713501,1198.483521 
	C1451.260742,1199.518188 1455.044556,1200.229492 1455.795044,1199.493530 
	C1457.641113,1197.682861 1459.097168,1195.069092 1459.690308,1192.539185 
	C1460.043091,1191.034668 1458.464844,1189.077148 1456.447388,1186.471558 
z"/>
<path fill="#6C6C6C" opacity="1.000000" stroke="none" 
	d="
M1471.976196,1142.565063 
	C1462.523071,1139.385254 1459.476562,1131.531006 1464.489380,1125.103027 
	C1467.581543,1121.137939 1473.885986,1120.171265 1477.950195,1123.039062 
	C1482.329346,1126.129028 1483.711304,1133.724121 1480.045166,1138.226929 
	C1478.360107,1140.296265 1475.186646,1141.153687 1471.976196,1142.565063 
M1476.426514,1136.878540 
	C1476.908325,1135.335693 1477.815796,1133.786255 1477.792480,1132.251099 
	C1477.720215,1127.529663 1475.120850,1124.540649 1471.753662,1124.814209 
	C1468.185547,1125.104126 1465.399048,1129.753784 1466.618042,1134.020752 
	C1467.921631,1138.583862 1470.620361,1140.836304 1476.426514,1136.878540 
z"/>
<path fill="#333333" opacity="1.000000" stroke="none" 
	d="
M1299.366455,1304.650635 
	C1298.583130,1307.372192 1298.129761,1310.171509 1296.527588,1311.227173 
	C1292.106445,1314.139771 1290.026123,1317.264160 1292.436035,1322.541382 
	C1292.690308,1323.098022 1290.800415,1324.634033 1289.905273,1325.715698 
	C1289.210571,1324.761230 1287.879272,1322.992554 1287.911499,1322.967529 
	C1292.620361,1319.284790 1287.102417,1315.361694 1288.238647,1311.655640 
	C1296.888916,1305.955078 1296.732056,1304.720581 1286.568604,1298.688721 
	C1292.880615,1296.163086 1293.951416,1296.608643 1299.366455,1304.650635 
z"/>
<path fill="#6C6C6C" opacity="1.000000" stroke="none" 
	d="
M1346.555542,1113.292480 
	C1349.394897,1115.034058 1348.675171,1116.054810 1346.427734,1116.238770 
	C1342.430908,1116.565918 1340.241333,1118.280029 1340.771118,1123.066406 
	C1343.089722,1123.655273 1345.535767,1124.276367 1350.322510,1125.491821 
	C1345.958008,1127.192017 1343.578735,1128.118896 1340.878906,1129.170654 
	C1340.450439,1133.123901 1340.004883,1137.233765 1339.451904,1142.336182 
	C1333.183594,1138.027710 1340.338135,1127.966797 1330.463867,1126.433838 
	C1337.927368,1124.335815 1335.294922,1111.474487 1346.555542,1113.292480 
z"/>
<path fill="#6C6C6C" opacity="1.000000" stroke="none" 
	d="
M1517.530640,1179.599854 
	C1517.658936,1186.367676 1517.658936,1192.320312 1517.658936,1198.750488 
	C1521.338013,1199.527222 1524.313721,1200.155518 1529.410522,1201.231689 
	C1523.246948,1204.598999 1518.885742,1203.683350 1513.057739,1202.966309 
	C1513.018799,1195.065186 1512.676270,1187.233887 1513.089600,1179.442627 
	C1513.257324,1176.281738 1515.403687,1175.490967 1517.530640,1179.599854 
z"/>
<path fill="#2A2B2A" opacity="1.000000" stroke="none" 
	d="
M1737.317383,1122.630005 
	C1733.205688,1132.959229 1737.227783,1141.154175 1743.120605,1149.796509 
	C1728.023193,1143.141968 1727.799194,1123.376953 1742.475830,1113.196045 
	C1740.875977,1116.117920 1739.276245,1119.039917 1737.317383,1122.630005 
z"/>
<path fill="#2A2B2A" opacity="1.000000" stroke="none" 
	d="
M1697.636963,1125.268555 
	C1698.929688,1123.642944 1699.975952,1122.749146 1701.022217,1121.855469 
	C1701.574951,1122.173950 1702.127686,1122.492310 1702.680420,1122.810791 
	C1700.464966,1128.526611 1698.451904,1134.333008 1695.954224,1139.922729 
	C1694.569580,1143.020996 1691.412109,1143.130859 1690.049927,1140.115112 
	C1687.518066,1134.510254 1685.546265,1128.652466 1682.742310,1121.337036 
	C1691.119629,1124.134399 1688.809692,1131.697510 1693.282471,1135.551392 
	C1694.684082,1132.292725 1696.037109,1129.146606 1697.636963,1125.268555 
z"/>
<path fill="#2A2B2A" opacity="1.000000" stroke="none" 
	d="
M1764.210083,1128.571533 
	C1764.800781,1137.960693 1761.485840,1144.708618 1753.742676,1151.614502 
	C1756.243408,1143.727295 1759.633423,1137.753906 1759.613525,1131.791870 
	C1759.593140,1125.630859 1756.259888,1119.480591 1754.153442,1112.598877 
	C1760.738770,1115.674927 1762.574463,1121.612183 1764.210083,1128.571533 
z"/>
<path fill="#636363" opacity="1.000000" stroke="none" 
	d="
M1444.243286,1139.406250 
	C1450.232178,1133.246826 1449.963745,1129.217896 1443.211914,1122.494385 
	C1446.510620,1122.494385 1449.181763,1122.494385 1451.723511,1122.494385 
	C1454.177612,1128.889526 1449.623535,1136.682739 1458.000977,1140.874756 
	C1447.965088,1142.726318 1447.965088,1142.726318 1444.243286,1139.406250 
z"/>
<path fill="#636363" opacity="1.000000" stroke="none" 
	d="
M1408.789185,1139.205811 
	C1410.707275,1139.339844 1411.884644,1139.472290 1414.122925,1139.723999 
	C1406.733398,1143.142212 1403.143433,1142.914917 1400.184326,1139.437866 
	C1397.501587,1136.285645 1397.116943,1130.102173 1399.370117,1126.350464 
	C1402.065552,1121.862549 1405.372314,1121.092773 1414.308228,1123.588013 
	C1408.958984,1125.484985 1402.441650,1124.426392 1402.121338,1131.453979 
	C1401.928223,1135.688354 1403.743408,1138.402222 1408.789185,1139.205811 
z"/>
<path fill="#6C6C6C" opacity="1.000000" stroke="none" 
	d="
M1402.943359,1199.400635 
	C1400.239014,1185.483154 1405.112427,1180.327881 1418.866699,1184.763672 
	C1411.539795,1186.084595 1404.978882,1186.524048 1406.031982,1194.636719 
	C1406.913574,1201.427002 1412.992432,1199.217407 1417.742432,1201.046631 
	C1411.906006,1205.692139 1407.546875,1204.018188 1402.943359,1199.400635 
z"/>
<path fill="#333333" opacity="1.000000" stroke="none" 
	d="
M1320.582397,1064.638672 
	C1317.627319,1067.886353 1314.985474,1070.484985 1311.891602,1073.528198 
	C1310.313599,1070.622803 1308.185303,1068.202026 1312.923462,1065.214600 
	C1317.818359,1062.128540 1317.556274,1059.850098 1312.742920,1056.840698 
	C1311.442871,1056.027954 1309.863037,1055.662720 1308.063965,1054.955444 
	C1315.381958,1050.501953 1320.376587,1054.299194 1320.582397,1064.638672 
z"/>
<path fill="#2A2B2A" opacity="1.000000" stroke="none" 
	d="
M1297.493286,1062.230225 
	C1294.640991,1064.913818 1292.176392,1067.056152 1289.027100,1069.793701 
	C1292.227295,1073.088867 1295.232666,1076.183350 1299.833252,1080.920410 
	C1291.175781,1079.343628 1287.886597,1074.243774 1282.767334,1069.967041 
	C1287.141113,1066.360962 1290.813721,1063.192749 1294.700195,1060.312988 
	C1295.165405,1059.968262 1296.792480,1061.192017 1297.493286,1062.230225 
z"/>
<path fill="#333333" opacity="1.000000" stroke="none" 
	d="
M1310.798828,1304.646729 
	C1314.941895,1307.956421 1318.461060,1310.857666 1322.856323,1314.481445 
	C1317.737671,1318.640137 1313.339111,1322.213989 1307.772217,1326.736938 
	C1307.642090,1319.485107 1313.703491,1318.843872 1315.940308,1314.554321 
	C1313.090942,1311.592651 1310.071411,1308.454224 1306.484497,1304.726074 
	C1308.389771,1304.474243 1309.282227,1304.356323 1310.798828,1304.646729 
z"/>
<path fill="#6C6C6C" opacity="1.000000" stroke="none" 
	d="
M1364.210327,1140.861572 
	C1356.140869,1143.142944 1353.990601,1142.138794 1353.347778,1135.173584 
	C1352.966187,1131.039307 1353.277954,1126.840942 1353.277954,1121.176514 
	C1359.159546,1124.448975 1357.265259,1128.414795 1357.713623,1131.525635 
	C1358.159790,1134.620361 1356.960205,1138.706665 1363.242188,1139.034668 
	C1364.171631,1139.993774 1364.190918,1140.427612 1364.210327,1140.861572 
z"/>
<path fill="#2A2B2A" opacity="1.000000" stroke="none" 
	d="
M1629.317383,1209.324707 
	C1627.432007,1209.764771 1626.217163,1209.821167 1625.446411,1209.856934 
	C1626.754883,1205.675049 1627.955811,1201.836426 1629.410889,1197.185913 
	C1630.466064,1197.605957 1632.838013,1197.801270 1633.376465,1198.897461 
	C1635.437134,1203.092041 1633.686279,1206.449341 1629.317383,1209.324707 
z"/>
<path fill="#6C6C6C" opacity="1.000000" stroke="none" 
	d="
M1495.181763,1174.363525 
	C1495.079590,1178.336060 1494.328491,1182.295654 1493.521729,1186.548462 
	C1488.857422,1186.671875 1487.321045,1183.938477 1488.716187,1180.436768 
	C1489.679199,1178.019287 1492.527222,1176.352783 1495.181763,1174.363525 
z"/>
<path fill="#636363" opacity="1.000000" stroke="none" 
	d="
M1607.993164,1183.976807 
	C1605.107300,1184.785278 1602.221558,1185.593994 1599.209961,1186.437866 
	C1600.281250,1182.410034 1601.259155,1178.733521 1602.377319,1174.529297 
	C1608.218994,1174.963013 1606.699707,1179.446289 1607.358276,1183.520020 
	C1607.935913,1184.055542 1607.993164,1183.976807 1607.993164,1183.976807 
z"/>
<path fill="#636363" opacity="1.000000" stroke="none" 
	d="
M1499.377563,1180.453735 
	C1500.811523,1176.498169 1503.105469,1174.685913 1506.705688,1174.405884 
	C1505.660767,1178.575317 1504.736816,1182.262817 1503.722900,1186.308960 
	C1499.536743,1187.055420 1499.290894,1184.147583 1499.377563,1180.453735 
z"/>
<path fill="#636363" opacity="1.000000" stroke="none" 
	d="
M1364.939209,1140.862793 
	C1364.190918,1140.427612 1364.171631,1139.993774 1364.113281,1138.909424 
	C1365.295898,1133.101685 1366.517456,1127.944214 1367.739014,1122.786865 
	C1371.105713,1128.361206 1370.104858,1134.287231 1369.702881,1140.093506 
	C1369.678711,1140.441772 1367.072754,1140.611450 1364.939209,1140.862793 
z"/>
<path fill="#636363" opacity="1.000000" stroke="none" 
	d="
M1607.902344,1184.091064 
	C1614.337769,1183.785278 1611.279297,1178.202148 1612.427856,1174.850586 
	C1617.051636,1174.320312 1617.944458,1176.938843 1617.481445,1180.172119 
	C1616.859497,1184.514404 1613.825684,1185.999634 1608.207275,1184.519287 
	C1607.993164,1183.976807 1607.935913,1184.055542 1607.902344,1184.091064 
z"/>
<path fill="#2A2B2A" opacity="1.000000" stroke="none" 
	d="
M1633.589600,1185.653809 
	C1632.342285,1188.783691 1630.386475,1189.676758 1628.305176,1187.681641 
	C1627.596558,1187.002319 1627.643066,1184.374390 1628.372925,1183.570801 
	C1630.667236,1181.044189 1632.221436,1183.169922 1633.589600,1185.653809 
z"/>
<path fill="#161616" opacity="1.000000" stroke="none" 
	d="
M1613.764771,1133.198975 
	C1612.892822,1133.896118 1612.184692,1133.872681 1610.956543,1133.959961 
	C1610.999390,1130.086670 1611.562378,1126.102539 1612.125366,1122.118530 
	C1613.074829,1122.240234 1614.024292,1122.361938 1614.973755,1122.483643 
	C1614.625488,1125.815186 1614.277100,1129.146729 1613.764771,1133.198975 
z"/>
<path fill="#141414" opacity="1.000000" stroke="none" 
	d="
M1620.457764,1150.448364 
	C1618.636230,1150.198730 1617.736938,1149.961914 1616.567261,1149.653931 
	C1622.367920,1146.916138 1628.349365,1146.726074 1637.292847,1150.310791 
	C1631.988647,1150.360962 1626.684448,1150.411133 1620.457764,1150.448364 
z"/>
<path fill="#333333" opacity="1.000000" stroke="none" 
	d="
M1313.906982,1076.984131 
	C1313.543945,1078.845215 1312.759033,1080.173096 1311.974121,1081.500854 
	C1311.187500,1080.657593 1310.400757,1079.814331 1309.614136,1078.971069 
	C1310.904541,1078.130981 1312.194946,1077.290894 1313.906982,1076.984131 
z"/>
<path fill="#C4C4C4" opacity="1.000000" stroke="none" 
	d="
M1333.383545,1065.835938 
	C1337.420776,1063.058105 1339.588379,1064.186890 1340.408325,1067.900513 
	C1341.293335,1071.908569 1341.309204,1075.845215 1336.694214,1077.762207 
	C1335.620605,1078.208252 1334.203735,1077.828125 1331.629395,1077.828125 
	C1332.027466,1073.761108 1332.387573,1070.081421 1333.383545,1065.835938 
z"/>
<path fill="#C4C4C4" opacity="1.000000" stroke="none" 
	d="
M1382.439209,1077.207275 
	C1380.145386,1077.698730 1378.534546,1077.776001 1376.962402,1077.851440 
	C1375.089478,1066.805054 1375.089478,1066.805054 1382.833374,1064.241089 
	C1386.154297,1068.325439 1386.212769,1072.479370 1382.439209,1077.207275 
z"/>
<path fill="#C4C4C4" opacity="1.000000" stroke="none" 
	d="
M1539.142090,1181.103271 
	C1544.123291,1179.203369 1546.714722,1180.870728 1547.915894,1185.140381 
	C1549.338379,1190.196533 1548.062134,1196.969727 1545.251343,1198.958496 
	C1542.129639,1201.167358 1537.817261,1199.765503 1536.696411,1195.660156 
	C1535.386475,1190.863403 1534.973389,1185.902710 1539.142090,1181.103271 
z"/>
<path fill="#C4C4C4" opacity="1.000000" stroke="none" 
	d="
M1717.161377,1125.110352 
	C1718.191284,1125.998047 1718.717773,1126.417114 1719.001587,1126.962646 
	C1719.277588,1127.492920 1719.304810,1128.152710 1719.593140,1129.426758 
	C1716.583984,1129.426758 1713.699951,1129.426758 1710.663330,1129.426758 
	C1711.172729,1125.744263 1712.999146,1124.120483 1717.161377,1125.110352 
z"/>
<path fill="#C4C4C4" opacity="1.000000" stroke="none" 
	d="
M1385.176514,1186.952759 
	C1388.531860,1185.551514 1390.875977,1185.624146 1391.713257,1189.104858 
	C1386.243042,1191.937866 1386.243042,1191.937866 1385.176514,1186.952759 
z"/>
<path fill="#C4C4C4" opacity="1.000000" stroke="none" 
	d="
M1666.692871,1137.435303 
	C1665.870361,1135.953979 1665.395264,1135.046265 1665.225952,1134.084717 
	C1664.544678,1130.215088 1665.036133,1126.565308 1669.229492,1125.157227 
	C1670.734619,1124.651855 1674.141479,1125.459473 1674.383789,1126.316895 
	C1675.300537,1129.561646 1676.319824,1133.418945 1675.333496,1136.394897 
	C1674.144897,1139.981079 1670.520142,1140.470703 1666.692871,1137.435303 
z"/>
<path fill="#C4C4C4" opacity="1.000000" stroke="none" 
	d="
M1587.738770,1129.034668 
	C1587.960571,1130.422485 1588.014282,1131.079346 1588.051758,1131.737183 
	C1588.265137,1135.478516 1586.844482,1138.752563 1583.068726,1139.000000 
	C1581.210449,1139.121704 1577.772461,1136.603760 1577.518066,1134.909668 
	C1577.092651,1132.077026 1577.742554,1128.102295 1579.577637,1126.138916 
	C1582.384888,1123.135498 1585.565063,1124.970459 1587.738770,1129.034668 
z"/>
<path fill="#C4C4C4" opacity="1.000000" stroke="none" 
	d="
M1457.101074,1186.897461 
	C1458.464844,1189.077148 1460.043091,1191.034668 1459.690308,1192.539185 
	C1459.097168,1195.069092 1457.641113,1197.682861 1455.795044,1199.493530 
	C1455.044556,1200.229492 1451.260742,1199.518188 1450.713501,1198.483521 
	C1449.459595,1196.113281 1448.526001,1192.996338 1448.968262,1190.443481 
	C1449.608398,1186.748657 1452.631226,1185.332764 1457.101074,1186.897461 
z"/>
<path fill="#C4C4C4" opacity="1.000000" stroke="none" 
	d="
M1475.924316,1137.407227 
	C1470.620361,1140.836304 1467.921631,1138.583862 1466.618042,1134.020752 
	C1465.399048,1129.753784 1468.185547,1125.104126 1471.753662,1124.814209 
	C1475.120850,1124.540649 1477.720215,1127.529663 1477.792480,1132.251099 
	C1477.815796,1133.786255 1476.908325,1135.335693 1475.924316,1137.407227 
z"/>
</svg>